<?xml version="1.0" standalone="no"?>
 <!DOCTYPE svg PUBLIC "-//W3C//DTD SVG 1.1//EN" 
 "http://www.w3.org/Graphics/SVG/1.1/DTD/svg11.dtd"> 
<svg
  xmlns:svg="http://www.w3.org/2000/svg"
  xmlns="http://www.w3.org/2000/svg"
  xmlns:xlink="http://www.w3.org/1999/xlink"
  version="1.1"
  width="84.1756mm" height="38.4556mm" viewBox="0.0000 0.0000 84.1756 38.4556">
<title>SVG Image created as horizontal-rails-brd.svg date 2024/10/04 00:17:27 </title>
  <desc>Image generated by PCBNEW </desc>
<g style="fill:#000000; fill-opacity:1.0000;stroke:#000000; stroke-opacity:1.0000;
stroke-linecap:round; stroke-linejoin:round;"
 transform="translate(0 0) scale(1 1)">
</g>
<g style="fill:none; 
stroke:#C2C2C2; stroke-width:0.2000; stroke-opacity:1; 
stroke-linecap:round; stroke-linejoin:round;">
<path d="M79.1000 26.2500
L81.1000 26.2500
" />
<path d="M79.1000 28.2500
L81.1000 28.2500
" />
<path d="M79.1000 26.2500 A1.0000 1.0000 0.0 0 0 79.1000 28.2500" />
<path d="M81.1000 28.2500 A1.0000 1.0000 0.0 0 0 81.1000 26.2500" />
<path d="M79.1000 10.2500
L81.1000 10.2500
" />
<path d="M79.1000 12.2500
L81.1000 12.2500
" />
<path d="M79.1000 10.2500 A1.0000 1.0000 0.0 0 0 79.1000 12.2500" />
<path d="M81.1000 12.2500 A1.0000 1.0000 0.0 0 0 81.1000 10.2500" />
<path d="M3.1000 26.2500
L5.1000 26.2500
" />
<path d="M3.1000 28.2500
L5.1000 28.2500
" />
<path d="M3.1000 26.2500 A1.0000 1.0000 0.0 0 0 3.1000 28.2500" />
<path d="M5.1000 28.2500 A1.0000 1.0000 0.0 0 0 5.1000 26.2500" />
<path d="M3.1000 12.2500
L5.1000 12.2500
" />
<path d="M3.1000 10.2500
L5.1000 10.2500
" />
<path d="M3.1000 10.2500 A1.0000 1.0000 0.0 0 0 3.1000 12.2500" />
<path d="M5.1000 12.2500 A1.0000 1.0000 0.0 0 0 5.1000 10.2500" />
<path d="M76.1000 32.2500
L76.1000 6.2500
" />
<path d="M84.1000 32.2500
L76.1000 32.2500
" />
<path d="M84.1000 6.2500
L84.1000 32.2500
" />
<path d="M76.1000 6.2500
L84.1000 6.2500
" />
<path d="M8.1000 32.2500
L8.1000 6.2500
" />
<path d="M0.1000 32.2500
L8.1000 32.2500
" />
<path d="M0.1000 6.2500
L0.1000 32.2500
" />
<path d="M8.1000 6.2500
L0.1000 6.2500
" />
<path d="M8.1000 6.2500
L10.1000 6.2500
" />
<path d="M8.1000 11.2500
L8.1000 6.2500
" />
<path d="M10.1000 11.2500
L8.1000 11.2500
" />
<path d="M8.1000 27.2500
L10.1000 27.2500
" />
<path d="M8.1000 32.2500
L8.1000 27.2500
" />
<path d="M10.1000 32.2500
L8.1000 32.2500
" />
<path d="M76.1000 32.2500
L74.1000 32.2500
" />
<path d="M76.1000 27.2500
L76.1000 32.2500
" />
<path d="M74.1000 27.2500
L76.1000 27.2500
" />
<path d="M76.1000 11.2500
L74.1000 11.2500
" />
<path d="M76.1000 6.2500
L76.1000 11.2500
" />
<path d="M74.1000 6.2500
L76.1000 6.2500
" />
<path d="M74.1000 32.2500
L74.1000 31.2500
" />
<path d="M10.1000 32.2500
L74.1000 32.2500
" />
<path d="M10.1000 31.2500
L10.1000 32.2500
" />
<circle cx="12.1000" cy="29.2500" r="1.0000" /> 
<circle cx="48.1000" cy="29.2500" r="1.0000" /> 
<circle cx="44.1000" cy="29.2500" r="1.0000" /> 
<circle cx="52.1000" cy="29.2500" r="1.0000" /> 
<circle cx="56.1000" cy="29.2500" r="1.0000" /> 
<circle cx="24.1000" cy="29.2500" r="1.0000" /> 
<path d="M74.1000 31.2500
L10.1000 31.2500
" />
<circle cx="68.1000" cy="29.2500" r="1.0000" /> 
<path d="M10.1000 27.2500
L74.1000 27.2500
" />
<circle cx="40.1000" cy="29.2500" r="1.0000" /> 
<path d="M74.1000 27.2500
L74.1000 31.2500
" />
<circle cx="20.1000" cy="29.2500" r="1.0000" /> 
<circle cx="32.1000" cy="29.2500" r="1.0000" /> 
<circle cx="72.1000" cy="29.2500" r="1.0000" /> 
<circle cx="64.1000" cy="29.2500" r="1.0000" /> 
<path d="M10.1000 31.2500
L10.1000 27.2500
" />
<circle cx="28.1000" cy="29.2500" r="1.0000" /> 
<circle cx="60.1000" cy="29.2500" r="1.0000" /> 
<circle cx="36.1000" cy="29.2500" r="1.0000" /> 
<circle cx="16.1000" cy="29.2500" r="1.0000" /> 
<path d="M74.1000 6.2500
L74.1000 7.2500
" />
<path d="M10.1000 6.2500
L74.1000 6.2500
" />
<path d="M10.1000 7.2500
L10.1000 6.2500
" />
<path d="M10.1000 11.2500
L10.1000 7.2500
" />
<path d="M74.1000 11.2500
L10.1000 11.2500
" />
<path d="M74.1000 7.2500
L74.1000 11.2500
" />
<path d="M10.1000 7.2500
L74.1000 7.2500
" />
<circle cx="64.1000" cy="9.2500" r="1.0000" /> 
<circle cx="60.1000" cy="9.2500" r="1.0000" /> 
<circle cx="68.1000" cy="9.2500" r="1.0000" /> 
<circle cx="72.1000" cy="9.2500" r="1.0000" /> 
<circle cx="36.1000" cy="9.2500" r="1.0000" /> 
<circle cx="48.1000" cy="9.2500" r="1.0000" /> 
<circle cx="44.1000" cy="9.2500" r="1.0000" /> 
<circle cx="56.1000" cy="9.2500" r="1.0000" /> 
<circle cx="52.1000" cy="9.2500" r="1.0000" /> 
<circle cx="40.1000" cy="9.2500" r="1.0000" /> 
<circle cx="32.1000" cy="9.2500" r="1.0000" /> 
<circle cx="28.1000" cy="9.2500" r="1.0000" /> 
<circle cx="24.1000" cy="9.2500" r="1.0000" /> 
<circle cx="20.1000" cy="9.2500" r="1.0000" /> 
<circle cx="16.1000" cy="9.2500" r="1.0000" /> 
<circle cx="12.1000" cy="9.2500" r="1.0000" /> 
</g>
<g style="fill:none; 
stroke:#5994DC; stroke-width:0.1500; stroke-opacity:1; 
stroke-linecap:round; stroke-linejoin:round;">
<text x="66.1000" y="19.2500"
textLength="5.8519" font-size="1.0667" lengthAdjust="spacingAndGlyphs"
text-anchor="middle" opacity="0" stroke-opacity="0">Module 4</text>
<g class="stroked-text"><desc>Module 4</desc>
<path d="M63.5095 19.1443
L63.5095 18.3443
" />
<path d="M63.5095 18.3443
L63.7762 18.9157
" />
<path d="M63.7762 18.9157
L64.0429 18.3443
" />
<path d="M64.0429 18.3443
L64.0429 19.1443
" />
<path d="M64.5381 19.1443
L64.4619 19.1062
" />
<path d="M64.4619 19.1062
L64.4238 19.0681
" />
<path d="M64.4238 19.0681
L64.3857 18.9919
" />
<path d="M64.3857 18.9919
L64.3857 18.7633
" />
<path d="M64.3857 18.7633
L64.4238 18.6872
" />
<path d="M64.4238 18.6872
L64.4619 18.6491
" />
<path d="M64.4619 18.6491
L64.5381 18.6110
" />
<path d="M64.5381 18.6110
L64.6524 18.6110
" />
<path d="M64.6524 18.6110
L64.7286 18.6491
" />
<path d="M64.7286 18.6491
L64.7667 18.6872
" />
<path d="M64.7667 18.6872
L64.8048 18.7633
" />
<path d="M64.8048 18.7633
L64.8048 18.9919
" />
<path d="M64.8048 18.9919
L64.7667 19.0681
" />
<path d="M64.7667 19.0681
L64.7286 19.1062
" />
<path d="M64.7286 19.1062
L64.6524 19.1443
" />
<path d="M64.6524 19.1443
L64.5381 19.1443
" />
<path d="M65.4905 19.1443
L65.4905 18.3443
" />
<path d="M65.4905 19.1062
L65.4143 19.1443
" />
<path d="M65.4143 19.1443
L65.2619 19.1443
" />
<path d="M65.2619 19.1443
L65.1857 19.1062
" />
<path d="M65.1857 19.1062
L65.1476 19.0681
" />
<path d="M65.1476 19.0681
L65.1095 18.9919
" />
<path d="M65.1095 18.9919
L65.1095 18.7633
" />
<path d="M65.1095 18.7633
L65.1476 18.6872
" />
<path d="M65.1476 18.6872
L65.1857 18.6491
" />
<path d="M65.1857 18.6491
L65.2619 18.6110
" />
<path d="M65.2619 18.6110
L65.4143 18.6110
" />
<path d="M65.4143 18.6110
L65.4905 18.6491
" />
<path d="M66.2143 18.6110
L66.2143 19.1443
" />
<path d="M65.8714 18.6110
L65.8714 19.0300
" />
<path d="M65.8714 19.0300
L65.9095 19.1062
" />
<path d="M65.9095 19.1062
L65.9857 19.1443
" />
<path d="M65.9857 19.1443
L66.1000 19.1443
" />
<path d="M66.1000 19.1443
L66.1762 19.1062
" />
<path d="M66.1762 19.1062
L66.2143 19.0681
" />
<path d="M66.7095 19.1443
L66.6333 19.1062
" />
<path d="M66.6333 19.1062
L66.5952 19.0300
" />
<path d="M66.5952 19.0300
L66.5952 18.3443
" />
<path d="M67.3190 19.1062
L67.2429 19.1443
" />
<path d="M67.2429 19.1443
L67.0905 19.1443
" />
<path d="M67.0905 19.1443
L67.0143 19.1062
" />
<path d="M67.0143 19.1062
L66.9762 19.0300
" />
<path d="M66.9762 19.0300
L66.9762 18.7252
" />
<path d="M66.9762 18.7252
L67.0143 18.6491
" />
<path d="M67.0143 18.6491
L67.0905 18.6110
" />
<path d="M67.0905 18.6110
L67.2429 18.6110
" />
<path d="M67.2429 18.6110
L67.3190 18.6491
" />
<path d="M67.3190 18.6491
L67.3571 18.7252
" />
<path d="M67.3571 18.7252
L67.3571 18.8014
" />
<path d="M67.3571 18.8014
L66.9762 18.8776
" />
<path d="M68.6524 18.6110
L68.6524 19.1443
" />
<path d="M68.4619 18.3062
L68.2714 18.8776
" />
<path d="M68.2714 18.8776
L68.7667 18.8776
" />
</g><text x="50.1000" y="19.2500"
textLength="5.8519" font-size="1.0667" lengthAdjust="spacingAndGlyphs"
text-anchor="middle" opacity="0" stroke-opacity="0">Module 3</text>
<g class="stroked-text"><desc>Module 3</desc>
<path d="M47.5095 19.1443
L47.5095 18.3443
" />
<path d="M47.5095 18.3443
L47.7762 18.9157
" />
<path d="M47.7762 18.9157
L48.0429 18.3443
" />
<path d="M48.0429 18.3443
L48.0429 19.1443
" />
<path d="M48.5381 19.1443
L48.4619 19.1062
" />
<path d="M48.4619 19.1062
L48.4238 19.0681
" />
<path d="M48.4238 19.0681
L48.3857 18.9919
" />
<path d="M48.3857 18.9919
L48.3857 18.7633
" />
<path d="M48.3857 18.7633
L48.4238 18.6872
" />
<path d="M48.4238 18.6872
L48.4619 18.6491
" />
<path d="M48.4619 18.6491
L48.5381 18.6110
" />
<path d="M48.5381 18.6110
L48.6524 18.6110
" />
<path d="M48.6524 18.6110
L48.7286 18.6491
" />
<path d="M48.7286 18.6491
L48.7667 18.6872
" />
<path d="M48.7667 18.6872
L48.8048 18.7633
" />
<path d="M48.8048 18.7633
L48.8048 18.9919
" />
<path d="M48.8048 18.9919
L48.7667 19.0681
" />
<path d="M48.7667 19.0681
L48.7286 19.1062
" />
<path d="M48.7286 19.1062
L48.6524 19.1443
" />
<path d="M48.6524 19.1443
L48.5381 19.1443
" />
<path d="M49.4905 19.1443
L49.4905 18.3443
" />
<path d="M49.4905 19.1062
L49.4143 19.1443
" />
<path d="M49.4143 19.1443
L49.2619 19.1443
" />
<path d="M49.2619 19.1443
L49.1857 19.1062
" />
<path d="M49.1857 19.1062
L49.1476 19.0681
" />
<path d="M49.1476 19.0681
L49.1095 18.9919
" />
<path d="M49.1095 18.9919
L49.1095 18.7633
" />
<path d="M49.1095 18.7633
L49.1476 18.6872
" />
<path d="M49.1476 18.6872
L49.1857 18.6491
" />
<path d="M49.1857 18.6491
L49.2619 18.6110
" />
<path d="M49.2619 18.6110
L49.4143 18.6110
" />
<path d="M49.4143 18.6110
L49.4905 18.6491
" />
<path d="M50.2143 18.6110
L50.2143 19.1443
" />
<path d="M49.8714 18.6110
L49.8714 19.0300
" />
<path d="M49.8714 19.0300
L49.9095 19.1062
" />
<path d="M49.9095 19.1062
L49.9857 19.1443
" />
<path d="M49.9857 19.1443
L50.1000 19.1443
" />
<path d="M50.1000 19.1443
L50.1762 19.1062
" />
<path d="M50.1762 19.1062
L50.2143 19.0681
" />
<path d="M50.7095 19.1443
L50.6333 19.1062
" />
<path d="M50.6333 19.1062
L50.5952 19.0300
" />
<path d="M50.5952 19.0300
L50.5952 18.3443
" />
<path d="M51.3190 19.1062
L51.2429 19.1443
" />
<path d="M51.2429 19.1443
L51.0905 19.1443
" />
<path d="M51.0905 19.1443
L51.0143 19.1062
" />
<path d="M51.0143 19.1062
L50.9762 19.0300
" />
<path d="M50.9762 19.0300
L50.9762 18.7252
" />
<path d="M50.9762 18.7252
L51.0143 18.6491
" />
<path d="M51.0143 18.6491
L51.0905 18.6110
" />
<path d="M51.0905 18.6110
L51.2429 18.6110
" />
<path d="M51.2429 18.6110
L51.3190 18.6491
" />
<path d="M51.3190 18.6491
L51.3571 18.7252
" />
<path d="M51.3571 18.7252
L51.3571 18.8014
" />
<path d="M51.3571 18.8014
L50.9762 18.8776
" />
<path d="M52.2333 18.3443
L52.7286 18.3443
" />
<path d="M52.7286 18.3443
L52.4619 18.6491
" />
<path d="M52.4619 18.6491
L52.5762 18.6491
" />
<path d="M52.5762 18.6491
L52.6524 18.6872
" />
<path d="M52.6524 18.6872
L52.6905 18.7252
" />
<path d="M52.6905 18.7252
L52.7286 18.8014
" />
<path d="M52.7286 18.8014
L52.7286 18.9919
" />
<path d="M52.7286 18.9919
L52.6905 19.0681
" />
<path d="M52.6905 19.0681
L52.6524 19.1062
" />
<path d="M52.6524 19.1062
L52.5762 19.1443
" />
<path d="M52.5762 19.1443
L52.3476 19.1443
" />
<path d="M52.3476 19.1443
L52.2714 19.1062
" />
<path d="M52.2714 19.1062
L52.2333 19.0681
" />
</g><text x="34.1000" y="19.2500"
textLength="5.8519" font-size="1.0667" lengthAdjust="spacingAndGlyphs"
text-anchor="middle" opacity="0" stroke-opacity="0">Module 2</text>
<g class="stroked-text"><desc>Module 2</desc>
<path d="M31.5095 19.1443
L31.5095 18.3443
" />
<path d="M31.5095 18.3443
L31.7762 18.9157
" />
<path d="M31.7762 18.9157
L32.0429 18.3443
" />
<path d="M32.0429 18.3443
L32.0429 19.1443
" />
<path d="M32.5381 19.1443
L32.4619 19.1062
" />
<path d="M32.4619 19.1062
L32.4238 19.0681
" />
<path d="M32.4238 19.0681
L32.3857 18.9919
" />
<path d="M32.3857 18.9919
L32.3857 18.7633
" />
<path d="M32.3857 18.7633
L32.4238 18.6872
" />
<path d="M32.4238 18.6872
L32.4619 18.6491
" />
<path d="M32.4619 18.6491
L32.5381 18.6110
" />
<path d="M32.5381 18.6110
L32.6524 18.6110
" />
<path d="M32.6524 18.6110
L32.7286 18.6491
" />
<path d="M32.7286 18.6491
L32.7667 18.6872
" />
<path d="M32.7667 18.6872
L32.8048 18.7633
" />
<path d="M32.8048 18.7633
L32.8048 18.9919
" />
<path d="M32.8048 18.9919
L32.7667 19.0681
" />
<path d="M32.7667 19.0681
L32.7286 19.1062
" />
<path d="M32.7286 19.1062
L32.6524 19.1443
" />
<path d="M32.6524 19.1443
L32.5381 19.1443
" />
<path d="M33.4905 19.1443
L33.4905 18.3443
" />
<path d="M33.4905 19.1062
L33.4143 19.1443
" />
<path d="M33.4143 19.1443
L33.2619 19.1443
" />
<path d="M33.2619 19.1443
L33.1857 19.1062
" />
<path d="M33.1857 19.1062
L33.1476 19.0681
" />
<path d="M33.1476 19.0681
L33.1095 18.9919
" />
<path d="M33.1095 18.9919
L33.1095 18.7633
" />
<path d="M33.1095 18.7633
L33.1476 18.6872
" />
<path d="M33.1476 18.6872
L33.1857 18.6491
" />
<path d="M33.1857 18.6491
L33.2619 18.6110
" />
<path d="M33.2619 18.6110
L33.4143 18.6110
" />
<path d="M33.4143 18.6110
L33.4905 18.6491
" />
<path d="M34.2143 18.6110
L34.2143 19.1443
" />
<path d="M33.8714 18.6110
L33.8714 19.0300
" />
<path d="M33.8714 19.0300
L33.9095 19.1062
" />
<path d="M33.9095 19.1062
L33.9857 19.1443
" />
<path d="M33.9857 19.1443
L34.1000 19.1443
" />
<path d="M34.1000 19.1443
L34.1762 19.1062
" />
<path d="M34.1762 19.1062
L34.2143 19.0681
" />
<path d="M34.7095 19.1443
L34.6333 19.1062
" />
<path d="M34.6333 19.1062
L34.5952 19.0300
" />
<path d="M34.5952 19.0300
L34.5952 18.3443
" />
<path d="M35.3190 19.1062
L35.2429 19.1443
" />
<path d="M35.2429 19.1443
L35.0905 19.1443
" />
<path d="M35.0905 19.1443
L35.0143 19.1062
" />
<path d="M35.0143 19.1062
L34.9762 19.0300
" />
<path d="M34.9762 19.0300
L34.9762 18.7252
" />
<path d="M34.9762 18.7252
L35.0143 18.6491
" />
<path d="M35.0143 18.6491
L35.0905 18.6110
" />
<path d="M35.0905 18.6110
L35.2429 18.6110
" />
<path d="M35.2429 18.6110
L35.3190 18.6491
" />
<path d="M35.3190 18.6491
L35.3571 18.7252
" />
<path d="M35.3571 18.7252
L35.3571 18.8014
" />
<path d="M35.3571 18.8014
L34.9762 18.8776
" />
<path d="M36.2714 18.4205
L36.3095 18.3824
" />
<path d="M36.3095 18.3824
L36.3857 18.3443
" />
<path d="M36.3857 18.3443
L36.5762 18.3443
" />
<path d="M36.5762 18.3443
L36.6524 18.3824
" />
<path d="M36.6524 18.3824
L36.6905 18.4205
" />
<path d="M36.6905 18.4205
L36.7286 18.4967
" />
<path d="M36.7286 18.4967
L36.7286 18.5729
" />
<path d="M36.7286 18.5729
L36.6905 18.6872
" />
<path d="M36.6905 18.6872
L36.2333 19.1443
" />
<path d="M36.2333 19.1443
L36.7286 19.1443
" />
</g><text x="18.1000" y="19.2500"
textLength="5.8519" font-size="1.0667" lengthAdjust="spacingAndGlyphs"
text-anchor="middle" opacity="0" stroke-opacity="0">Module 1</text>
<g class="stroked-text"><desc>Module 1</desc>
<path d="M15.5095 19.1443
L15.5095 18.3443
" />
<path d="M15.5095 18.3443
L15.7762 18.9157
" />
<path d="M15.7762 18.9157
L16.0429 18.3443
" />
<path d="M16.0429 18.3443
L16.0429 19.1443
" />
<path d="M16.5381 19.1443
L16.4619 19.1062
" />
<path d="M16.4619 19.1062
L16.4238 19.0681
" />
<path d="M16.4238 19.0681
L16.3857 18.9919
" />
<path d="M16.3857 18.9919
L16.3857 18.7633
" />
<path d="M16.3857 18.7633
L16.4238 18.6872
" />
<path d="M16.4238 18.6872
L16.4619 18.6491
" />
<path d="M16.4619 18.6491
L16.5381 18.6110
" />
<path d="M16.5381 18.6110
L16.6524 18.6110
" />
<path d="M16.6524 18.6110
L16.7286 18.6491
" />
<path d="M16.7286 18.6491
L16.7667 18.6872
" />
<path d="M16.7667 18.6872
L16.8048 18.7633
" />
<path d="M16.8048 18.7633
L16.8048 18.9919
" />
<path d="M16.8048 18.9919
L16.7667 19.0681
" />
<path d="M16.7667 19.0681
L16.7286 19.1062
" />
<path d="M16.7286 19.1062
L16.6524 19.1443
" />
<path d="M16.6524 19.1443
L16.5381 19.1443
" />
<path d="M17.4905 19.1443
L17.4905 18.3443
" />
<path d="M17.4905 19.1062
L17.4143 19.1443
" />
<path d="M17.4143 19.1443
L17.2619 19.1443
" />
<path d="M17.2619 19.1443
L17.1857 19.1062
" />
<path d="M17.1857 19.1062
L17.1476 19.0681
" />
<path d="M17.1476 19.0681
L17.1095 18.9919
" />
<path d="M17.1095 18.9919
L17.1095 18.7633
" />
<path d="M17.1095 18.7633
L17.1476 18.6872
" />
<path d="M17.1476 18.6872
L17.1857 18.6491
" />
<path d="M17.1857 18.6491
L17.2619 18.6110
" />
<path d="M17.2619 18.6110
L17.4143 18.6110
" />
<path d="M17.4143 18.6110
L17.4905 18.6491
" />
<path d="M18.2143 18.6110
L18.2143 19.1443
" />
<path d="M17.8714 18.6110
L17.8714 19.0300
" />
<path d="M17.8714 19.0300
L17.9095 19.1062
" />
<path d="M17.9095 19.1062
L17.9857 19.1443
" />
<path d="M17.9857 19.1443
L18.1000 19.1443
" />
<path d="M18.1000 19.1443
L18.1762 19.1062
" />
<path d="M18.1762 19.1062
L18.2143 19.0681
" />
<path d="M18.7095 19.1443
L18.6333 19.1062
" />
<path d="M18.6333 19.1062
L18.5952 19.0300
" />
<path d="M18.5952 19.0300
L18.5952 18.3443
" />
<path d="M19.3190 19.1062
L19.2429 19.1443
" />
<path d="M19.2429 19.1443
L19.0905 19.1443
" />
<path d="M19.0905 19.1443
L19.0143 19.1062
" />
<path d="M19.0143 19.1062
L18.9762 19.0300
" />
<path d="M18.9762 19.0300
L18.9762 18.7252
" />
<path d="M18.9762 18.7252
L19.0143 18.6491
" />
<path d="M19.0143 18.6491
L19.0905 18.6110
" />
<path d="M19.0905 18.6110
L19.2429 18.6110
" />
<path d="M19.2429 18.6110
L19.3190 18.6491
" />
<path d="M19.3190 18.6491
L19.3571 18.7252
" />
<path d="M19.3571 18.7252
L19.3571 18.8014
" />
<path d="M19.3571 18.8014
L18.9762 18.8776
" />
<path d="M20.7286 19.1443
L20.2714 19.1443
" />
<path d="M20.5000 19.1443
L20.5000 18.3443
" />
<path d="M20.5000 18.3443
L20.4238 18.4586
" />
<path d="M20.4238 18.4586
L20.3476 18.5348
" />
<path d="M20.3476 18.5348
L20.2714 18.5729
" />
</g><text x="42.1000" y="38.2500"
textLength="22.7662" font-size="1.0667" lengthAdjust="spacingAndGlyphs"
text-anchor="middle" opacity="0" stroke-opacity="0">Rail length = n * 20.32 + 5.08 mm</text>
<g class="stroked-text"><desc>Rail length = n * 20.32 + 5.08 mm</desc>
<path d="M31.5095 38.1443
L31.2429 37.7633
" />
<path d="M31.0524 38.1443
L31.0524 37.3443
" />
<path d="M31.0524 37.3443
L31.3571 37.3443
" />
<path d="M31.3571 37.3443
L31.4333 37.3824
" />
<path d="M31.4333 37.3824
L31.4714 37.4205
" />
<path d="M31.4714 37.4205
L31.5095 37.4967
" />
<path d="M31.5095 37.4967
L31.5095 37.6110
" />
<path d="M31.5095 37.6110
L31.4714 37.6872
" />
<path d="M31.4714 37.6872
L31.4333 37.7252
" />
<path d="M31.4333 37.7252
L31.3571 37.7633
" />
<path d="M31.3571 37.7633
L31.0524 37.7633
" />
<path d="M32.1952 38.1443
L32.1952 37.7252
" />
<path d="M32.1952 37.7252
L32.1571 37.6491
" />
<path d="M32.1571 37.6491
L32.0809 37.6110
" />
<path d="M32.0809 37.6110
L31.9286 37.6110
" />
<path d="M31.9286 37.6110
L31.8524 37.6491
" />
<path d="M32.1952 38.1062
L32.1190 38.1443
" />
<path d="M32.1190 38.1443
L31.9286 38.1443
" />
<path d="M31.9286 38.1443
L31.8524 38.1062
" />
<path d="M31.8524 38.1062
L31.8143 38.0300
" />
<path d="M31.8143 38.0300
L31.8143 37.9538
" />
<path d="M31.8143 37.9538
L31.8524 37.8776
" />
<path d="M31.8524 37.8776
L31.9286 37.8395
" />
<path d="M31.9286 37.8395
L32.1190 37.8395
" />
<path d="M32.1190 37.8395
L32.1952 37.8014
" />
<path d="M32.5762 38.1443
L32.5762 37.6110
" />
<path d="M32.5762 37.3443
L32.5381 37.3824
" />
<path d="M32.5381 37.3824
L32.5762 37.4205
" />
<path d="M32.5762 37.4205
L32.6143 37.3824
" />
<path d="M32.6143 37.3824
L32.5762 37.3443
" />
<path d="M32.5762 37.3443
L32.5762 37.4205
" />
<path d="M33.0714 38.1443
L32.9952 38.1062
" />
<path d="M32.9952 38.1062
L32.9571 38.0300
" />
<path d="M32.9571 38.0300
L32.9571 37.3443
" />
<path d="M34.1000 38.1443
L34.0238 38.1062
" />
<path d="M34.0238 38.1062
L33.9857 38.0300
" />
<path d="M33.9857 38.0300
L33.9857 37.3443
" />
<path d="M34.7095 38.1062
L34.6333 38.1443
" />
<path d="M34.6333 38.1443
L34.4809 38.1443
" />
<path d="M34.4809 38.1443
L34.4048 38.1062
" />
<path d="M34.4048 38.1062
L34.3667 38.0300
" />
<path d="M34.3667 38.0300
L34.3667 37.7252
" />
<path d="M34.3667 37.7252
L34.4048 37.6491
" />
<path d="M34.4048 37.6491
L34.4809 37.6110
" />
<path d="M34.4809 37.6110
L34.6333 37.6110
" />
<path d="M34.6333 37.6110
L34.7095 37.6491
" />
<path d="M34.7095 37.6491
L34.7476 37.7252
" />
<path d="M34.7476 37.7252
L34.7476 37.8014
" />
<path d="M34.7476 37.8014
L34.3667 37.8776
" />
<path d="M35.0905 37.6110
L35.0905 38.1443
" />
<path d="M35.0905 37.6872
L35.1286 37.6491
" />
<path d="M35.1286 37.6491
L35.2048 37.6110
" />
<path d="M35.2048 37.6110
L35.3190 37.6110
" />
<path d="M35.3190 37.6110
L35.3952 37.6491
" />
<path d="M35.3952 37.6491
L35.4333 37.7252
" />
<path d="M35.4333 37.7252
L35.4333 38.1443
" />
<path d="M36.1571 37.6110
L36.1571 38.2586
" />
<path d="M36.1571 38.2586
L36.1190 38.3348
" />
<path d="M36.1190 38.3348
L36.0810 38.3729
" />
<path d="M36.0810 38.3729
L36.0048 38.4110
" />
<path d="M36.0048 38.4110
L35.8905 38.4110
" />
<path d="M35.8905 38.4110
L35.8143 38.3729
" />
<path d="M36.1571 38.1062
L36.0810 38.1443
" />
<path d="M36.0810 38.1443
L35.9286 38.1443
" />
<path d="M35.9286 38.1443
L35.8524 38.1062
" />
<path d="M35.8524 38.1062
L35.8143 38.0681
" />
<path d="M35.8143 38.0681
L35.7762 37.9919
" />
<path d="M35.7762 37.9919
L35.7762 37.7633
" />
<path d="M35.7762 37.7633
L35.8143 37.6872
" />
<path d="M35.8143 37.6872
L35.8524 37.6491
" />
<path d="M35.8524 37.6491
L35.9286 37.6110
" />
<path d="M35.9286 37.6110
L36.0810 37.6110
" />
<path d="M36.0810 37.6110
L36.1571 37.6491
" />
<path d="M36.4238 37.6110
L36.7286 37.6110
" />
<path d="M36.5381 37.3443
L36.5381 38.0300
" />
<path d="M36.5381 38.0300
L36.5762 38.1062
" />
<path d="M36.5762 38.1062
L36.6524 38.1443
" />
<path d="M36.6524 38.1443
L36.7286 38.1443
" />
<path d="M36.9952 38.1443
L36.9952 37.3443
" />
<path d="M37.3381 38.1443
L37.3381 37.7252
" />
<path d="M37.3381 37.7252
L37.3000 37.6491
" />
<path d="M37.3000 37.6491
L37.2238 37.6110
" />
<path d="M37.2238 37.6110
L37.1095 37.6110
" />
<path d="M37.1095 37.6110
L37.0333 37.6491
" />
<path d="M37.0333 37.6491
L36.9952 37.6872
" />
<path d="M38.3286 37.7252
L38.9381 37.7252
" />
<path d="M38.9381 37.9538
L38.3286 37.9538
" />
<path d="M39.9286 37.6110
L39.9286 38.1443
" />
<path d="M39.9286 37.6872
L39.9667 37.6491
" />
<path d="M39.9667 37.6491
L40.0429 37.6110
" />
<path d="M40.0429 37.6110
L40.1571 37.6110
" />
<path d="M40.1571 37.6110
L40.2333 37.6491
" />
<path d="M40.2333 37.6491
L40.2714 37.7252
" />
<path d="M40.2714 37.7252
L40.2714 38.1443
" />
<path d="M41.3762 37.3443
L41.3762 37.5348
" />
<path d="M41.1857 37.4586
L41.3762 37.5348
" />
<path d="M41.3762 37.5348
L41.5667 37.4586
" />
<path d="M41.2619 37.6872
L41.3762 37.5348
" />
<path d="M41.3762 37.5348
L41.4905 37.6872
" />
<path d="M42.4429 37.4205
L42.4810 37.3824
" />
<path d="M42.4810 37.3824
L42.5571 37.3443
" />
<path d="M42.5571 37.3443
L42.7476 37.3443
" />
<path d="M42.7476 37.3443
L42.8238 37.3824
" />
<path d="M42.8238 37.3824
L42.8619 37.4205
" />
<path d="M42.8619 37.4205
L42.9000 37.4967
" />
<path d="M42.9000 37.4967
L42.9000 37.5729
" />
<path d="M42.9000 37.5729
L42.8619 37.6872
" />
<path d="M42.8619 37.6872
L42.4048 38.1443
" />
<path d="M42.4048 38.1443
L42.9000 38.1443
" />
<path d="M43.3952 37.3443
L43.4714 37.3443
" />
<path d="M43.4714 37.3443
L43.5476 37.3824
" />
<path d="M43.5476 37.3824
L43.5857 37.4205
" />
<path d="M43.5857 37.4205
L43.6238 37.4967
" />
<path d="M43.6238 37.4967
L43.6619 37.6491
" />
<path d="M43.6619 37.6491
L43.6619 37.8395
" />
<path d="M43.6619 37.8395
L43.6238 37.9919
" />
<path d="M43.6238 37.9919
L43.5857 38.0681
" />
<path d="M43.5857 38.0681
L43.5476 38.1062
" />
<path d="M43.5476 38.1062
L43.4714 38.1443
" />
<path d="M43.4714 38.1443
L43.3952 38.1443
" />
<path d="M43.3952 38.1443
L43.3190 38.1062
" />
<path d="M43.3190 38.1062
L43.2810 38.0681
" />
<path d="M43.2810 38.0681
L43.2429 37.9919
" />
<path d="M43.2429 37.9919
L43.2048 37.8395
" />
<path d="M43.2048 37.8395
L43.2048 37.6491
" />
<path d="M43.2048 37.6491
L43.2429 37.4967
" />
<path d="M43.2429 37.4967
L43.2810 37.4205
" />
<path d="M43.2810 37.4205
L43.3190 37.3824
" />
<path d="M43.3190 37.3824
L43.3952 37.3443
" />
<path d="M44.0048 38.0681
L44.0429 38.1062
" />
<path d="M44.0429 38.1062
L44.0048 38.1443
" />
<path d="M44.0048 38.1443
L43.9667 38.1062
" />
<path d="M43.9667 38.1062
L44.0048 38.0681
" />
<path d="M44.0048 38.0681
L44.0048 38.1443
" />
<path d="M44.3095 37.3443
L44.8048 37.3443
" />
<path d="M44.8048 37.3443
L44.5381 37.6491
" />
<path d="M44.5381 37.6491
L44.6524 37.6491
" />
<path d="M44.6524 37.6491
L44.7286 37.6872
" />
<path d="M44.7286 37.6872
L44.7667 37.7252
" />
<path d="M44.7667 37.7252
L44.8048 37.8014
" />
<path d="M44.8048 37.8014
L44.8048 37.9919
" />
<path d="M44.8048 37.9919
L44.7667 38.0681
" />
<path d="M44.7667 38.0681
L44.7286 38.1062
" />
<path d="M44.7286 38.1062
L44.6524 38.1443
" />
<path d="M44.6524 38.1443
L44.4238 38.1443
" />
<path d="M44.4238 38.1443
L44.3476 38.1062
" />
<path d="M44.3476 38.1062
L44.3095 38.0681
" />
<path d="M45.1095 37.4205
L45.1476 37.3824
" />
<path d="M45.1476 37.3824
L45.2238 37.3443
" />
<path d="M45.2238 37.3443
L45.4143 37.3443
" />
<path d="M45.4143 37.3443
L45.4905 37.3824
" />
<path d="M45.4905 37.3824
L45.5286 37.4205
" />
<path d="M45.5286 37.4205
L45.5667 37.4967
" />
<path d="M45.5667 37.4967
L45.5667 37.5729
" />
<path d="M45.5667 37.5729
L45.5286 37.6872
" />
<path d="M45.5286 37.6872
L45.0714 38.1443
" />
<path d="M45.0714 38.1443
L45.5667 38.1443
" />
<path d="M46.5190 37.8395
L47.1286 37.8395
" />
<path d="M46.8238 38.1443
L46.8238 37.5348
" />
<path d="M48.5000 37.3443
L48.1190 37.3443
" />
<path d="M48.1190 37.3443
L48.0810 37.7252
" />
<path d="M48.0810 37.7252
L48.1190 37.6872
" />
<path d="M48.1190 37.6872
L48.1952 37.6491
" />
<path d="M48.1952 37.6491
L48.3857 37.6491
" />
<path d="M48.3857 37.6491
L48.4619 37.6872
" />
<path d="M48.4619 37.6872
L48.5000 37.7252
" />
<path d="M48.5000 37.7252
L48.5381 37.8014
" />
<path d="M48.5381 37.8014
L48.5381 37.9919
" />
<path d="M48.5381 37.9919
L48.5000 38.0681
" />
<path d="M48.5000 38.0681
L48.4619 38.1062
" />
<path d="M48.4619 38.1062
L48.3857 38.1443
" />
<path d="M48.3857 38.1443
L48.1952 38.1443
" />
<path d="M48.1952 38.1443
L48.1190 38.1062
" />
<path d="M48.1190 38.1062
L48.0810 38.0681
" />
<path d="M48.8810 38.0681
L48.9190 38.1062
" />
<path d="M48.9190 38.1062
L48.8810 38.1443
" />
<path d="M48.8810 38.1443
L48.8429 38.1062
" />
<path d="M48.8429 38.1062
L48.8810 38.0681
" />
<path d="M48.8810 38.0681
L48.8810 38.1443
" />
<path d="M49.4143 37.3443
L49.4905 37.3443
" />
<path d="M49.4905 37.3443
L49.5667 37.3824
" />
<path d="M49.5667 37.3824
L49.6048 37.4205
" />
<path d="M49.6048 37.4205
L49.6429 37.4967
" />
<path d="M49.6429 37.4967
L49.6810 37.6491
" />
<path d="M49.6810 37.6491
L49.6810 37.8395
" />
<path d="M49.6810 37.8395
L49.6429 37.9919
" />
<path d="M49.6429 37.9919
L49.6048 38.0681
" />
<path d="M49.6048 38.0681
L49.5667 38.1062
" />
<path d="M49.5667 38.1062
L49.4905 38.1443
" />
<path d="M49.4905 38.1443
L49.4143 38.1443
" />
<path d="M49.4143 38.1443
L49.3381 38.1062
" />
<path d="M49.3381 38.1062
L49.3000 38.0681
" />
<path d="M49.3000 38.0681
L49.2619 37.9919
" />
<path d="M49.2619 37.9919
L49.2238 37.8395
" />
<path d="M49.2238 37.8395
L49.2238 37.6491
" />
<path d="M49.2238 37.6491
L49.2619 37.4967
" />
<path d="M49.2619 37.4967
L49.3000 37.4205
" />
<path d="M49.3000 37.4205
L49.3381 37.3824
" />
<path d="M49.3381 37.3824
L49.4143 37.3443
" />
<path d="M50.1381 37.6872
L50.0619 37.6491
" />
<path d="M50.0619 37.6491
L50.0238 37.6110
" />
<path d="M50.0238 37.6110
L49.9857 37.5348
" />
<path d="M49.9857 37.5348
L49.9857 37.4967
" />
<path d="M49.9857 37.4967
L50.0238 37.4205
" />
<path d="M50.0238 37.4205
L50.0619 37.3824
" />
<path d="M50.0619 37.3824
L50.1381 37.3443
" />
<path d="M50.1381 37.3443
L50.2905 37.3443
" />
<path d="M50.2905 37.3443
L50.3667 37.3824
" />
<path d="M50.3667 37.3824
L50.4048 37.4205
" />
<path d="M50.4048 37.4205
L50.4429 37.4967
" />
<path d="M50.4429 37.4967
L50.4429 37.5348
" />
<path d="M50.4429 37.5348
L50.4048 37.6110
" />
<path d="M50.4048 37.6110
L50.3667 37.6491
" />
<path d="M50.3667 37.6491
L50.2905 37.6872
" />
<path d="M50.2905 37.6872
L50.1381 37.6872
" />
<path d="M50.1381 37.6872
L50.0619 37.7252
" />
<path d="M50.0619 37.7252
L50.0238 37.7633
" />
<path d="M50.0238 37.7633
L49.9857 37.8395
" />
<path d="M49.9857 37.8395
L49.9857 37.9919
" />
<path d="M49.9857 37.9919
L50.0238 38.0681
" />
<path d="M50.0238 38.0681
L50.0619 38.1062
" />
<path d="M50.0619 38.1062
L50.1381 38.1443
" />
<path d="M50.1381 38.1443
L50.2905 38.1443
" />
<path d="M50.2905 38.1443
L50.3667 38.1062
" />
<path d="M50.3667 38.1062
L50.4048 38.0681
" />
<path d="M50.4048 38.0681
L50.4429 37.9919
" />
<path d="M50.4429 37.9919
L50.4429 37.8395
" />
<path d="M50.4429 37.8395
L50.4048 37.7633
" />
<path d="M50.4048 37.7633
L50.3667 37.7252
" />
<path d="M50.3667 37.7252
L50.2905 37.6872
" />
<path d="M51.3952 38.1443
L51.3952 37.6110
" />
<path d="M51.3952 37.6872
L51.4333 37.6491
" />
<path d="M51.4333 37.6491
L51.5095 37.6110
" />
<path d="M51.5095 37.6110
L51.6238 37.6110
" />
<path d="M51.6238 37.6110
L51.7000 37.6491
" />
<path d="M51.7000 37.6491
L51.7381 37.7252
" />
<path d="M51.7381 37.7252
L51.7381 38.1443
" />
<path d="M51.7381 37.7252
L51.7762 37.6491
" />
<path d="M51.7762 37.6491
L51.8524 37.6110
" />
<path d="M51.8524 37.6110
L51.9667 37.6110
" />
<path d="M51.9667 37.6110
L52.0429 37.6491
" />
<path d="M52.0429 37.6491
L52.0810 37.7252
" />
<path d="M52.0810 37.7252
L52.0810 38.1443
" />
<path d="M52.4619 38.1443
L52.4619 37.6110
" />
<path d="M52.4619 37.6872
L52.5000 37.6491
" />
<path d="M52.5000 37.6491
L52.5762 37.6110
" />
<path d="M52.5762 37.6110
L52.6905 37.6110
" />
<path d="M52.6905 37.6110
L52.7667 37.6491
" />
<path d="M52.7667 37.6491
L52.8048 37.7252
" />
<path d="M52.8048 37.7252
L52.8048 38.1443
" />
<path d="M52.8048 37.7252
L52.8429 37.6491
" />
<path d="M52.8429 37.6491
L52.9190 37.6110
" />
<path d="M52.9190 37.6110
L53.0333 37.6110
" />
<path d="M53.0333 37.6110
L53.1095 37.6491
" />
<path d="M53.1095 37.6491
L53.1476 37.7252
" />
<path d="M53.1476 37.7252
L53.1476 38.1443
" />
</g><text x="42.1000" y="35.7000"
textLength="6.4614" font-size="1.0667" lengthAdjust="spacingAndGlyphs"
text-anchor="middle" opacity="0" stroke-opacity="0">86.36 mm</text>
<g class="stroked-text"><desc>86.36 mm</desc>
<path d="M39.3190 35.2052
L39.2429 35.1671
" />
<path d="M39.2429 35.1671
L39.2048 35.1290
" />
<path d="M39.2048 35.1290
L39.1667 35.0528
" />
<path d="M39.1667 35.0528
L39.1667 35.0147
" />
<path d="M39.1667 35.0147
L39.2048 34.9385
" />
<path d="M39.2048 34.9385
L39.2429 34.9004
" />
<path d="M39.2429 34.9004
L39.3190 34.8623
" />
<path d="M39.3190 34.8623
L39.4714 34.8623
" />
<path d="M39.4714 34.8623
L39.5476 34.9004
" />
<path d="M39.5476 34.9004
L39.5857 34.9385
" />
<path d="M39.5857 34.9385
L39.6238 35.0147
" />
<path d="M39.6238 35.0147
L39.6238 35.0528
" />
<path d="M39.6238 35.0528
L39.5857 35.1290
" />
<path d="M39.5857 35.1290
L39.5476 35.1671
" />
<path d="M39.5476 35.1671
L39.4714 35.2052
" />
<path d="M39.4714 35.2052
L39.3190 35.2052
" />
<path d="M39.3190 35.2052
L39.2429 35.2432
" />
<path d="M39.2429 35.2432
L39.2048 35.2813
" />
<path d="M39.2048 35.2813
L39.1667 35.3575
" />
<path d="M39.1667 35.3575
L39.1667 35.5099
" />
<path d="M39.1667 35.5099
L39.2048 35.5861
" />
<path d="M39.2048 35.5861
L39.2429 35.6242
" />
<path d="M39.2429 35.6242
L39.3190 35.6623
" />
<path d="M39.3190 35.6623
L39.4714 35.6623
" />
<path d="M39.4714 35.6623
L39.5476 35.6242
" />
<path d="M39.5476 35.6242
L39.5857 35.5861
" />
<path d="M39.5857 35.5861
L39.6238 35.5099
" />
<path d="M39.6238 35.5099
L39.6238 35.3575
" />
<path d="M39.6238 35.3575
L39.5857 35.2813
" />
<path d="M39.5857 35.2813
L39.5476 35.2432
" />
<path d="M39.5476 35.2432
L39.4714 35.2052
" />
<path d="M40.3095 34.8623
L40.1571 34.8623
" />
<path d="M40.1571 34.8623
L40.0810 34.9004
" />
<path d="M40.0810 34.9004
L40.0429 34.9385
" />
<path d="M40.0429 34.9385
L39.9667 35.0528
" />
<path d="M39.9667 35.0528
L39.9286 35.2052
" />
<path d="M39.9286 35.2052
L39.9286 35.5099
" />
<path d="M39.9286 35.5099
L39.9667 35.5861
" />
<path d="M39.9667 35.5861
L40.0048 35.6242
" />
<path d="M40.0048 35.6242
L40.0810 35.6623
" />
<path d="M40.0810 35.6623
L40.2333 35.6623
" />
<path d="M40.2333 35.6623
L40.3095 35.6242
" />
<path d="M40.3095 35.6242
L40.3476 35.5861
" />
<path d="M40.3476 35.5861
L40.3857 35.5099
" />
<path d="M40.3857 35.5099
L40.3857 35.3194
" />
<path d="M40.3857 35.3194
L40.3476 35.2432
" />
<path d="M40.3476 35.2432
L40.3095 35.2052
" />
<path d="M40.3095 35.2052
L40.2333 35.1671
" />
<path d="M40.2333 35.1671
L40.0810 35.1671
" />
<path d="M40.0810 35.1671
L40.0048 35.2052
" />
<path d="M40.0048 35.2052
L39.9667 35.2432
" />
<path d="M39.9667 35.2432
L39.9286 35.3194
" />
<path d="M40.7286 35.5861
L40.7667 35.6242
" />
<path d="M40.7667 35.6242
L40.7286 35.6623
" />
<path d="M40.7286 35.6623
L40.6905 35.6242
" />
<path d="M40.6905 35.6242
L40.7286 35.5861
" />
<path d="M40.7286 35.5861
L40.7286 35.6623
" />
<path d="M41.0333 34.8623
L41.5286 34.8623
" />
<path d="M41.5286 34.8623
L41.2619 35.1671
" />
<path d="M41.2619 35.1671
L41.3762 35.1671
" />
<path d="M41.3762 35.1671
L41.4524 35.2052
" />
<path d="M41.4524 35.2052
L41.4905 35.2432
" />
<path d="M41.4905 35.2432
L41.5286 35.3194
" />
<path d="M41.5286 35.3194
L41.5286 35.5099
" />
<path d="M41.5286 35.5099
L41.4905 35.5861
" />
<path d="M41.4905 35.5861
L41.4524 35.6242
" />
<path d="M41.4524 35.6242
L41.3762 35.6623
" />
<path d="M41.3762 35.6623
L41.1476 35.6623
" />
<path d="M41.1476 35.6623
L41.0714 35.6242
" />
<path d="M41.0714 35.6242
L41.0333 35.5861
" />
<path d="M42.2143 34.8623
L42.0619 34.8623
" />
<path d="M42.0619 34.8623
L41.9857 34.9004
" />
<path d="M41.9857 34.9004
L41.9476 34.9385
" />
<path d="M41.9476 34.9385
L41.8714 35.0528
" />
<path d="M41.8714 35.0528
L41.8333 35.2052
" />
<path d="M41.8333 35.2052
L41.8333 35.5099
" />
<path d="M41.8333 35.5099
L41.8714 35.5861
" />
<path d="M41.8714 35.5861
L41.9095 35.6242
" />
<path d="M41.9095 35.6242
L41.9857 35.6623
" />
<path d="M41.9857 35.6623
L42.1381 35.6623
" />
<path d="M42.1381 35.6623
L42.2143 35.6242
" />
<path d="M42.2143 35.6242
L42.2524 35.5861
" />
<path d="M42.2524 35.5861
L42.2905 35.5099
" />
<path d="M42.2905 35.5099
L42.2905 35.3194
" />
<path d="M42.2905 35.3194
L42.2524 35.2432
" />
<path d="M42.2524 35.2432
L42.2143 35.2052
" />
<path d="M42.2143 35.2052
L42.1381 35.1671
" />
<path d="M42.1381 35.1671
L41.9857 35.1671
" />
<path d="M41.9857 35.1671
L41.9095 35.2052
" />
<path d="M41.9095 35.2052
L41.8714 35.2432
" />
<path d="M41.8714 35.2432
L41.8333 35.3194
" />
<path d="M43.2429 35.6623
L43.2429 35.1290
" />
<path d="M43.2429 35.2052
L43.2810 35.1671
" />
<path d="M43.2810 35.1671
L43.3571 35.1290
" />
<path d="M43.3571 35.1290
L43.4714 35.1290
" />
<path d="M43.4714 35.1290
L43.5476 35.1671
" />
<path d="M43.5476 35.1671
L43.5857 35.2432
" />
<path d="M43.5857 35.2432
L43.5857 35.6623
" />
<path d="M43.5857 35.2432
L43.6238 35.1671
" />
<path d="M43.6238 35.1671
L43.7000 35.1290
" />
<path d="M43.7000 35.1290
L43.8143 35.1290
" />
<path d="M43.8143 35.1290
L43.8905 35.1671
" />
<path d="M43.8905 35.1671
L43.9286 35.2432
" />
<path d="M43.9286 35.2432
L43.9286 35.6623
" />
<path d="M44.3095 35.6623
L44.3095 35.1290
" />
<path d="M44.3095 35.2052
L44.3476 35.1671
" />
<path d="M44.3476 35.1671
L44.4238 35.1290
" />
<path d="M44.4238 35.1290
L44.5381 35.1290
" />
<path d="M44.5381 35.1290
L44.6143 35.1671
" />
<path d="M44.6143 35.1671
L44.6524 35.2432
" />
<path d="M44.6524 35.2432
L44.6524 35.6623
" />
<path d="M44.6524 35.2432
L44.6905 35.1671
" />
<path d="M44.6905 35.1671
L44.7667 35.1290
" />
<path d="M44.7667 35.1290
L44.8810 35.1290
" />
<path d="M44.8810 35.1290
L44.9571 35.1671
" />
<path d="M44.9571 35.1671
L44.9952 35.2432
" />
<path d="M44.9952 35.2432
L44.9952 35.6623
" />
</g></g>
<g style="fill:none; 
stroke:#5994DC; stroke-width:0.2000; stroke-opacity:1; 
stroke-linecap:round; stroke-linejoin:round;">
<path d="M8.1000 32.7500
L8.1000 36.8364
" />
<path d="M76.1000 32.7500
L76.1000 36.8364
" />
<path d="M8.1000 36.2500
L76.1000 36.2500
" />
<path d="M8.1000 36.2500
L76.1000 36.2500
" />
<path d="M8.1000 36.2500
L9.2265 35.6636
" />
<path d="M8.1000 36.2500
L9.2265 36.8364
" />
<path d="M76.1000 36.2500
L74.9735 36.8364
" />
<path d="M76.1000 36.2500
L74.9735 35.6636
" />
</g>
<g style="fill:none; 
stroke:#5994DC; stroke-width:0.1500; stroke-opacity:1; 
stroke-linecap:round; stroke-linejoin:round;">
<text x="75.1000" y="2.7000"
textLength="5.6995" font-size="1.0667" lengthAdjust="spacingAndGlyphs"
text-anchor="middle" opacity="0" stroke-opacity="0">2.54 mm</text>
<g class="stroked-text"><desc>2.54 mm</desc>
<path d="M72.5476 1.9385
L72.5857 1.9004
" />
<path d="M72.5857 1.9004
L72.6619 1.8623
" />
<path d="M72.6619 1.8623
L72.8524 1.8623
" />
<path d="M72.8524 1.8623
L72.9286 1.9004
" />
<path d="M72.9286 1.9004
L72.9667 1.9385
" />
<path d="M72.9667 1.9385
L73.0048 2.0147
" />
<path d="M73.0048 2.0147
L73.0048 2.0909
" />
<path d="M73.0048 2.0909
L72.9667 2.2052
" />
<path d="M72.9667 2.2052
L72.5095 2.6623
" />
<path d="M72.5095 2.6623
L73.0048 2.6623
" />
<path d="M73.3476 2.5861
L73.3857 2.6242
" />
<path d="M73.3857 2.6242
L73.3476 2.6623
" />
<path d="M73.3476 2.6623
L73.3095 2.6242
" />
<path d="M73.3095 2.6242
L73.3476 2.5861
" />
<path d="M73.3476 2.5861
L73.3476 2.6623
" />
<path d="M74.1095 1.8623
L73.7286 1.8623
" />
<path d="M73.7286 1.8623
L73.6905 2.2432
" />
<path d="M73.6905 2.2432
L73.7286 2.2052
" />
<path d="M73.7286 2.2052
L73.8048 2.1671
" />
<path d="M73.8048 2.1671
L73.9952 2.1671
" />
<path d="M73.9952 2.1671
L74.0714 2.2052
" />
<path d="M74.0714 2.2052
L74.1095 2.2432
" />
<path d="M74.1095 2.2432
L74.1476 2.3194
" />
<path d="M74.1476 2.3194
L74.1476 2.5099
" />
<path d="M74.1476 2.5099
L74.1095 2.5861
" />
<path d="M74.1095 2.5861
L74.0714 2.6242
" />
<path d="M74.0714 2.6242
L73.9952 2.6623
" />
<path d="M73.9952 2.6623
L73.8048 2.6623
" />
<path d="M73.8048 2.6623
L73.7286 2.6242
" />
<path d="M73.7286 2.6242
L73.6905 2.5861
" />
<path d="M74.8333 2.1290
L74.8333 2.6623
" />
<path d="M74.6429 1.8242
L74.4524 2.3956
" />
<path d="M74.4524 2.3956
L74.9476 2.3956
" />
<path d="M75.8619 2.6623
L75.8619 2.1290
" />
<path d="M75.8619 2.2052
L75.9000 2.1671
" />
<path d="M75.9000 2.1671
L75.9762 2.1290
" />
<path d="M75.9762 2.1290
L76.0905 2.1290
" />
<path d="M76.0905 2.1290
L76.1667 2.1671
" />
<path d="M76.1667 2.1671
L76.2048 2.2432
" />
<path d="M76.2048 2.2432
L76.2048 2.6623
" />
<path d="M76.2048 2.2432
L76.2429 2.1671
" />
<path d="M76.2429 2.1671
L76.3190 2.1290
" />
<path d="M76.3190 2.1290
L76.4333 2.1290
" />
<path d="M76.4333 2.1290
L76.5095 2.1671
" />
<path d="M76.5095 2.1671
L76.5476 2.2432
" />
<path d="M76.5476 2.2432
L76.5476 2.6623
" />
<path d="M76.9286 2.6623
L76.9286 2.1290
" />
<path d="M76.9286 2.2052
L76.9667 2.1671
" />
<path d="M76.9667 2.1671
L77.0429 2.1290
" />
<path d="M77.0429 2.1290
L77.1571 2.1290
" />
<path d="M77.1571 2.1290
L77.2333 2.1671
" />
<path d="M77.2333 2.1671
L77.2714 2.2432
" />
<path d="M77.2714 2.2432
L77.2714 2.6623
" />
<path d="M77.2714 2.2432
L77.3095 2.1671
" />
<path d="M77.3095 2.1671
L77.3857 2.1290
" />
<path d="M77.3857 2.1290
L77.5000 2.1290
" />
<path d="M77.5000 2.1290
L77.5762 2.1671
" />
<path d="M77.5762 2.1671
L77.6143 2.2432
" />
<path d="M77.6143 2.2432
L77.6143 2.6623
" />
</g></g>
<g style="fill:none; 
stroke:#5994DC; stroke-width:0.2000; stroke-opacity:1; 
stroke-linecap:round; stroke-linejoin:round;">
<path d="M74.1000 5.7500
L74.1000 2.6636
" />
<path d="M76.1000 5.7500
L76.1000 2.6636
" />
<path d="M74.1000 3.2500
L76.1000 3.2500
" />
<path d="M74.1000 3.2500
L76.1000 3.2500
" />
<path d="M74.1000 3.2500
L75.2265 2.6636
" />
<path d="M74.1000 3.2500
L75.2265 3.8364
" />
<path d="M76.1000 3.2500
L74.9735 3.8364
" />
<path d="M76.1000 3.2500
L74.9735 2.6636
" />
</g>
<g style="fill:none; 
stroke:#5994DC; stroke-width:0.1500; stroke-opacity:1; 
stroke-linecap:round; stroke-linejoin:round;">
<text x="40.1000" y="1.2500"
textLength="3.2995" font-size="1.0667" lengthAdjust="spacingAndGlyphs"
text-anchor="middle" opacity="0" stroke-opacity="0">1 HP</text>
<g class="stroked-text"><desc>1 HP</desc>
<path d="M39.2048 1.1443
L38.7476 1.1443
" />
<path d="M38.9762 1.1443
L38.9762 0.3443
" />
<path d="M38.9762 0.3443
L38.9000 0.4586
" />
<path d="M38.9000 0.4586
L38.8238 0.5348
" />
<path d="M38.8238 0.5348
L38.7476 0.5729
" />
<path d="M40.1571 1.1443
L40.1571 0.3443
" />
<path d="M40.1571 0.7252
L40.6143 0.7252
" />
<path d="M40.6143 1.1443
L40.6143 0.3443
" />
<path d="M40.9952 1.1443
L40.9952 0.3443
" />
<path d="M40.9952 0.3443
L41.3000 0.3443
" />
<path d="M41.3000 0.3443
L41.3762 0.3824
" />
<path d="M41.3762 0.3824
L41.4143 0.4205
" />
<path d="M41.4143 0.4205
L41.4524 0.4967
" />
<path d="M41.4524 0.4967
L41.4524 0.6110
" />
<path d="M41.4524 0.6110
L41.4143 0.6872
" />
<path d="M41.4143 0.6872
L41.3762 0.7252
" />
<path d="M41.3762 0.7252
L41.3000 0.7633
" />
<path d="M41.3000 0.7633
L40.9952 0.7633
" />
</g><text x="40.1000" y="2.7000"
textLength="5.6995" font-size="1.0667" lengthAdjust="spacingAndGlyphs"
text-anchor="middle" opacity="0" stroke-opacity="0">5.08 mm</text>
<g class="stroked-text"><desc>5.08 mm</desc>
<path d="M37.9667 1.8623
L37.5857 1.8623
" />
<path d="M37.5857 1.8623
L37.5476 2.2432
" />
<path d="M37.5476 2.2432
L37.5857 2.2052
" />
<path d="M37.5857 2.2052
L37.6619 2.1671
" />
<path d="M37.6619 2.1671
L37.8524 2.1671
" />
<path d="M37.8524 2.1671
L37.9286 2.2052
" />
<path d="M37.9286 2.2052
L37.9667 2.2432
" />
<path d="M37.9667 2.2432
L38.0048 2.3194
" />
<path d="M38.0048 2.3194
L38.0048 2.5099
" />
<path d="M38.0048 2.5099
L37.9667 2.5861
" />
<path d="M37.9667 2.5861
L37.9286 2.6242
" />
<path d="M37.9286 2.6242
L37.8524 2.6623
" />
<path d="M37.8524 2.6623
L37.6619 2.6623
" />
<path d="M37.6619 2.6623
L37.5857 2.6242
" />
<path d="M37.5857 2.6242
L37.5476 2.5861
" />
<path d="M38.3476 2.5861
L38.3857 2.6242
" />
<path d="M38.3857 2.6242
L38.3476 2.6623
" />
<path d="M38.3476 2.6623
L38.3095 2.6242
" />
<path d="M38.3095 2.6242
L38.3476 2.5861
" />
<path d="M38.3476 2.5861
L38.3476 2.6623
" />
<path d="M38.8810 1.8623
L38.9571 1.8623
" />
<path d="M38.9571 1.8623
L39.0333 1.9004
" />
<path d="M39.0333 1.9004
L39.0714 1.9385
" />
<path d="M39.0714 1.9385
L39.1095 2.0147
" />
<path d="M39.1095 2.0147
L39.1476 2.1671
" />
<path d="M39.1476 2.1671
L39.1476 2.3575
" />
<path d="M39.1476 2.3575
L39.1095 2.5099
" />
<path d="M39.1095 2.5099
L39.0714 2.5861
" />
<path d="M39.0714 2.5861
L39.0333 2.6242
" />
<path d="M39.0333 2.6242
L38.9571 2.6623
" />
<path d="M38.9571 2.6623
L38.8810 2.6623
" />
<path d="M38.8810 2.6623
L38.8048 2.6242
" />
<path d="M38.8048 2.6242
L38.7667 2.5861
" />
<path d="M38.7667 2.5861
L38.7286 2.5099
" />
<path d="M38.7286 2.5099
L38.6905 2.3575
" />
<path d="M38.6905 2.3575
L38.6905 2.1671
" />
<path d="M38.6905 2.1671
L38.7286 2.0147
" />
<path d="M38.7286 2.0147
L38.7667 1.9385
" />
<path d="M38.7667 1.9385
L38.8048 1.9004
" />
<path d="M38.8048 1.9004
L38.8810 1.8623
" />
<path d="M39.6048 2.2052
L39.5286 2.1671
" />
<path d="M39.5286 2.1671
L39.4905 2.1290
" />
<path d="M39.4905 2.1290
L39.4524 2.0528
" />
<path d="M39.4524 2.0528
L39.4524 2.0147
" />
<path d="M39.4524 2.0147
L39.4905 1.9385
" />
<path d="M39.4905 1.9385
L39.5286 1.9004
" />
<path d="M39.5286 1.9004
L39.6048 1.8623
" />
<path d="M39.6048 1.8623
L39.7571 1.8623
" />
<path d="M39.7571 1.8623
L39.8333 1.9004
" />
<path d="M39.8333 1.9004
L39.8714 1.9385
" />
<path d="M39.8714 1.9385
L39.9095 2.0147
" />
<path d="M39.9095 2.0147
L39.9095 2.0528
" />
<path d="M39.9095 2.0528
L39.8714 2.1290
" />
<path d="M39.8714 2.1290
L39.8333 2.1671
" />
<path d="M39.8333 2.1671
L39.7571 2.2052
" />
<path d="M39.7571 2.2052
L39.6048 2.2052
" />
<path d="M39.6048 2.2052
L39.5286 2.2432
" />
<path d="M39.5286 2.2432
L39.4905 2.2813
" />
<path d="M39.4905 2.2813
L39.4524 2.3575
" />
<path d="M39.4524 2.3575
L39.4524 2.5099
" />
<path d="M39.4524 2.5099
L39.4905 2.5861
" />
<path d="M39.4905 2.5861
L39.5286 2.6242
" />
<path d="M39.5286 2.6242
L39.6048 2.6623
" />
<path d="M39.6048 2.6623
L39.7571 2.6623
" />
<path d="M39.7571 2.6623
L39.8333 2.6242
" />
<path d="M39.8333 2.6242
L39.8714 2.5861
" />
<path d="M39.8714 2.5861
L39.9095 2.5099
" />
<path d="M39.9095 2.5099
L39.9095 2.3575
" />
<path d="M39.9095 2.3575
L39.8714 2.2813
" />
<path d="M39.8714 2.2813
L39.8333 2.2432
" />
<path d="M39.8333 2.2432
L39.7571 2.2052
" />
<path d="M40.8619 2.6623
L40.8619 2.1290
" />
<path d="M40.8619 2.2052
L40.9000 2.1671
" />
<path d="M40.9000 2.1671
L40.9762 2.1290
" />
<path d="M40.9762 2.1290
L41.0905 2.1290
" />
<path d="M41.0905 2.1290
L41.1667 2.1671
" />
<path d="M41.1667 2.1671
L41.2048 2.2432
" />
<path d="M41.2048 2.2432
L41.2048 2.6623
" />
<path d="M41.2048 2.2432
L41.2429 2.1671
" />
<path d="M41.2429 2.1671
L41.3190 2.1290
" />
<path d="M41.3190 2.1290
L41.4333 2.1290
" />
<path d="M41.4333 2.1290
L41.5095 2.1671
" />
<path d="M41.5095 2.1671
L41.5476 2.2432
" />
<path d="M41.5476 2.2432
L41.5476 2.6623
" />
<path d="M41.9286 2.6623
L41.9286 2.1290
" />
<path d="M41.9286 2.2052
L41.9667 2.1671
" />
<path d="M41.9667 2.1671
L42.0429 2.1290
" />
<path d="M42.0429 2.1290
L42.1571 2.1290
" />
<path d="M42.1571 2.1290
L42.2333 2.1671
" />
<path d="M42.2333 2.1671
L42.2714 2.2432
" />
<path d="M42.2714 2.2432
L42.2714 2.6623
" />
<path d="M42.2714 2.2432
L42.3095 2.1671
" />
<path d="M42.3095 2.1671
L42.3857 2.1290
" />
<path d="M42.3857 2.1290
L42.5000 2.1290
" />
<path d="M42.5000 2.1290
L42.5762 2.1671
" />
<path d="M42.5762 2.1671
L42.6143 2.2432
" />
<path d="M42.6143 2.2432
L42.6143 2.6623
" />
</g></g>
<g style="fill:none; 
stroke:#5994DC; stroke-width:0.2000; stroke-opacity:1; 
stroke-linecap:round; stroke-linejoin:round;">
<path d="M38.1000 5.7500
L38.1000 2.6636
" />
<path d="M42.1000 5.7500
L42.1000 2.6636
" />
<path d="M38.1000 3.2500
L42.1000 3.2500
" />
<path d="M38.1000 3.2500
L42.1000 3.2500
" />
<path d="M38.1000 3.2500
L39.2265 2.6636
" />
<path d="M38.1000 3.2500
L39.2265 3.8364
" />
<path d="M42.1000 3.2500
L40.9735 3.8364
" />
<path d="M42.1000 3.2500
L40.9735 2.6636
" />
</g>
<g style="fill:none; 
stroke:#5994DC; stroke-width:0.1500; stroke-opacity:1; 
stroke-linecap:round; stroke-linejoin:round;">
<text x="18.1000" y="1.2500"
textLength="8.2138" font-size="1.0667" lengthAdjust="spacingAndGlyphs"
text-anchor="middle" opacity="0" stroke-opacity="0">Module width</text>
<g class="stroked-text"><desc>Module width</desc>
<path d="M14.3286 1.1443
L14.3286 0.3443
" />
<path d="M14.3286 0.3443
L14.5952 0.9157
" />
<path d="M14.5952 0.9157
L14.8619 0.3443
" />
<path d="M14.8619 0.3443
L14.8619 1.1443
" />
<path d="M15.3571 1.1443
L15.2810 1.1062
" />
<path d="M15.2810 1.1062
L15.2429 1.0681
" />
<path d="M15.2429 1.0681
L15.2048 0.9919
" />
<path d="M15.2048 0.9919
L15.2048 0.7633
" />
<path d="M15.2048 0.7633
L15.2429 0.6872
" />
<path d="M15.2429 0.6872
L15.2810 0.6491
" />
<path d="M15.2810 0.6491
L15.3571 0.6110
" />
<path d="M15.3571 0.6110
L15.4714 0.6110
" />
<path d="M15.4714 0.6110
L15.5476 0.6491
" />
<path d="M15.5476 0.6491
L15.5857 0.6872
" />
<path d="M15.5857 0.6872
L15.6238 0.7633
" />
<path d="M15.6238 0.7633
L15.6238 0.9919
" />
<path d="M15.6238 0.9919
L15.5857 1.0681
" />
<path d="M15.5857 1.0681
L15.5476 1.1062
" />
<path d="M15.5476 1.1062
L15.4714 1.1443
" />
<path d="M15.4714 1.1443
L15.3571 1.1443
" />
<path d="M16.3095 1.1443
L16.3095 0.3443
" />
<path d="M16.3095 1.1062
L16.2333 1.1443
" />
<path d="M16.2333 1.1443
L16.0810 1.1443
" />
<path d="M16.0810 1.1443
L16.0048 1.1062
" />
<path d="M16.0048 1.1062
L15.9667 1.0681
" />
<path d="M15.9667 1.0681
L15.9286 0.9919
" />
<path d="M15.9286 0.9919
L15.9286 0.7633
" />
<path d="M15.9286 0.7633
L15.9667 0.6872
" />
<path d="M15.9667 0.6872
L16.0048 0.6491
" />
<path d="M16.0048 0.6491
L16.0810 0.6110
" />
<path d="M16.0810 0.6110
L16.2333 0.6110
" />
<path d="M16.2333 0.6110
L16.3095 0.6491
" />
<path d="M17.0333 0.6110
L17.0333 1.1443
" />
<path d="M16.6905 0.6110
L16.6905 1.0300
" />
<path d="M16.6905 1.0300
L16.7286 1.1062
" />
<path d="M16.7286 1.1062
L16.8048 1.1443
" />
<path d="M16.8048 1.1443
L16.9190 1.1443
" />
<path d="M16.9190 1.1443
L16.9952 1.1062
" />
<path d="M16.9952 1.1062
L17.0333 1.0681
" />
<path d="M17.5286 1.1443
L17.4524 1.1062
" />
<path d="M17.4524 1.1062
L17.4143 1.0300
" />
<path d="M17.4143 1.0300
L17.4143 0.3443
" />
<path d="M18.1381 1.1062
L18.0619 1.1443
" />
<path d="M18.0619 1.1443
L17.9095 1.1443
" />
<path d="M17.9095 1.1443
L17.8333 1.1062
" />
<path d="M17.8333 1.1062
L17.7952 1.0300
" />
<path d="M17.7952 1.0300
L17.7952 0.7252
" />
<path d="M17.7952 0.7252
L17.8333 0.6491
" />
<path d="M17.8333 0.6491
L17.9095 0.6110
" />
<path d="M17.9095 0.6110
L18.0619 0.6110
" />
<path d="M18.0619 0.6110
L18.1381 0.6491
" />
<path d="M18.1381 0.6491
L18.1762 0.7252
" />
<path d="M18.1762 0.7252
L18.1762 0.8014
" />
<path d="M18.1762 0.8014
L17.7952 0.8776
" />
<path d="M19.0524 0.6110
L19.2048 1.1443
" />
<path d="M19.2048 1.1443
L19.3571 0.7633
" />
<path d="M19.3571 0.7633
L19.5095 1.1443
" />
<path d="M19.5095 1.1443
L19.6619 0.6110
" />
<path d="M19.9667 1.1443
L19.9667 0.6110
" />
<path d="M19.9667 0.3443
L19.9286 0.3824
" />
<path d="M19.9286 0.3824
L19.9667 0.4205
" />
<path d="M19.9667 0.4205
L20.0048 0.3824
" />
<path d="M20.0048 0.3824
L19.9667 0.3443
" />
<path d="M19.9667 0.3443
L19.9667 0.4205
" />
<path d="M20.6905 1.1443
L20.6905 0.3443
" />
<path d="M20.6905 1.1062
L20.6143 1.1443
" />
<path d="M20.6143 1.1443
L20.4619 1.1443
" />
<path d="M20.4619 1.1443
L20.3857 1.1062
" />
<path d="M20.3857 1.1062
L20.3476 1.0681
" />
<path d="M20.3476 1.0681
L20.3095 0.9919
" />
<path d="M20.3095 0.9919
L20.3095 0.7633
" />
<path d="M20.3095 0.7633
L20.3476 0.6872
" />
<path d="M20.3476 0.6872
L20.3857 0.6491
" />
<path d="M20.3857 0.6491
L20.4619 0.6110
" />
<path d="M20.4619 0.6110
L20.6143 0.6110
" />
<path d="M20.6143 0.6110
L20.6905 0.6491
" />
<path d="M20.9571 0.6110
L21.2619 0.6110
" />
<path d="M21.0714 0.3443
L21.0714 1.0300
" />
<path d="M21.0714 1.0300
L21.1095 1.1062
" />
<path d="M21.1095 1.1062
L21.1857 1.1443
" />
<path d="M21.1857 1.1443
L21.2619 1.1443
" />
<path d="M21.5286 1.1443
L21.5286 0.3443
" />
<path d="M21.8714 1.1443
L21.8714 0.7252
" />
<path d="M21.8714 0.7252
L21.8333 0.6491
" />
<path d="M21.8333 0.6491
L21.7571 0.6110
" />
<path d="M21.7571 0.6110
L21.6429 0.6110
" />
<path d="M21.6429 0.6110
L21.5667 0.6491
" />
<path d="M21.5667 0.6491
L21.5286 0.6872
" />
</g><text x="18.1000" y="2.7000"
textLength="6.4614" font-size="1.0667" lengthAdjust="spacingAndGlyphs"
text-anchor="middle" opacity="0" stroke-opacity="0">20.32 mm</text>
<g class="stroked-text"><desc>20.32 mm</desc>
<path d="M15.1667 1.9385
L15.2048 1.9004
" />
<path d="M15.2048 1.9004
L15.2810 1.8623
" />
<path d="M15.2810 1.8623
L15.4714 1.8623
" />
<path d="M15.4714 1.8623
L15.5476 1.9004
" />
<path d="M15.5476 1.9004
L15.5857 1.9385
" />
<path d="M15.5857 1.9385
L15.6238 2.0147
" />
<path d="M15.6238 2.0147
L15.6238 2.0909
" />
<path d="M15.6238 2.0909
L15.5857 2.2052
" />
<path d="M15.5857 2.2052
L15.1286 2.6623
" />
<path d="M15.1286 2.6623
L15.6238 2.6623
" />
<path d="M16.1190 1.8623
L16.1952 1.8623
" />
<path d="M16.1952 1.8623
L16.2714 1.9004
" />
<path d="M16.2714 1.9004
L16.3095 1.9385
" />
<path d="M16.3095 1.9385
L16.3476 2.0147
" />
<path d="M16.3476 2.0147
L16.3857 2.1671
" />
<path d="M16.3857 2.1671
L16.3857 2.3575
" />
<path d="M16.3857 2.3575
L16.3476 2.5099
" />
<path d="M16.3476 2.5099
L16.3095 2.5861
" />
<path d="M16.3095 2.5861
L16.2714 2.6242
" />
<path d="M16.2714 2.6242
L16.1952 2.6623
" />
<path d="M16.1952 2.6623
L16.1190 2.6623
" />
<path d="M16.1190 2.6623
L16.0429 2.6242
" />
<path d="M16.0429 2.6242
L16.0048 2.5861
" />
<path d="M16.0048 2.5861
L15.9667 2.5099
" />
<path d="M15.9667 2.5099
L15.9286 2.3575
" />
<path d="M15.9286 2.3575
L15.9286 2.1671
" />
<path d="M15.9286 2.1671
L15.9667 2.0147
" />
<path d="M15.9667 2.0147
L16.0048 1.9385
" />
<path d="M16.0048 1.9385
L16.0429 1.9004
" />
<path d="M16.0429 1.9004
L16.1190 1.8623
" />
<path d="M16.7286 2.5861
L16.7667 2.6242
" />
<path d="M16.7667 2.6242
L16.7286 2.6623
" />
<path d="M16.7286 2.6623
L16.6905 2.6242
" />
<path d="M16.6905 2.6242
L16.7286 2.5861
" />
<path d="M16.7286 2.5861
L16.7286 2.6623
" />
<path d="M17.0333 1.8623
L17.5286 1.8623
" />
<path d="M17.5286 1.8623
L17.2619 2.1671
" />
<path d="M17.2619 2.1671
L17.3762 2.1671
" />
<path d="M17.3762 2.1671
L17.4524 2.2052
" />
<path d="M17.4524 2.2052
L17.4905 2.2432
" />
<path d="M17.4905 2.2432
L17.5286 2.3194
" />
<path d="M17.5286 2.3194
L17.5286 2.5099
" />
<path d="M17.5286 2.5099
L17.4905 2.5861
" />
<path d="M17.4905 2.5861
L17.4524 2.6242
" />
<path d="M17.4524 2.6242
L17.3762 2.6623
" />
<path d="M17.3762 2.6623
L17.1476 2.6623
" />
<path d="M17.1476 2.6623
L17.0714 2.6242
" />
<path d="M17.0714 2.6242
L17.0333 2.5861
" />
<path d="M17.8333 1.9385
L17.8714 1.9004
" />
<path d="M17.8714 1.9004
L17.9476 1.8623
" />
<path d="M17.9476 1.8623
L18.1381 1.8623
" />
<path d="M18.1381 1.8623
L18.2143 1.9004
" />
<path d="M18.2143 1.9004
L18.2524 1.9385
" />
<path d="M18.2524 1.9385
L18.2905 2.0147
" />
<path d="M18.2905 2.0147
L18.2905 2.0909
" />
<path d="M18.2905 2.0909
L18.2524 2.2052
" />
<path d="M18.2524 2.2052
L17.7952 2.6623
" />
<path d="M17.7952 2.6623
L18.2905 2.6623
" />
<path d="M19.2429 2.6623
L19.2429 2.1290
" />
<path d="M19.2429 2.2052
L19.2810 2.1671
" />
<path d="M19.2810 2.1671
L19.3571 2.1290
" />
<path d="M19.3571 2.1290
L19.4714 2.1290
" />
<path d="M19.4714 2.1290
L19.5476 2.1671
" />
<path d="M19.5476 2.1671
L19.5857 2.2432
" />
<path d="M19.5857 2.2432
L19.5857 2.6623
" />
<path d="M19.5857 2.2432
L19.6238 2.1671
" />
<path d="M19.6238 2.1671
L19.7000 2.1290
" />
<path d="M19.7000 2.1290
L19.8143 2.1290
" />
<path d="M19.8143 2.1290
L19.8905 2.1671
" />
<path d="M19.8905 2.1671
L19.9286 2.2432
" />
<path d="M19.9286 2.2432
L19.9286 2.6623
" />
<path d="M20.3095 2.6623
L20.3095 2.1290
" />
<path d="M20.3095 2.2052
L20.3476 2.1671
" />
<path d="M20.3476 2.1671
L20.4238 2.1290
" />
<path d="M20.4238 2.1290
L20.5381 2.1290
" />
<path d="M20.5381 2.1290
L20.6143 2.1671
" />
<path d="M20.6143 2.1671
L20.6524 2.2432
" />
<path d="M20.6524 2.2432
L20.6524 2.6623
" />
<path d="M20.6524 2.2432
L20.6905 2.1671
" />
<path d="M20.6905 2.1671
L20.7667 2.1290
" />
<path d="M20.7667 2.1290
L20.8810 2.1290
" />
<path d="M20.8810 2.1290
L20.9571 2.1671
" />
<path d="M20.9571 2.1671
L20.9952 2.2432
" />
<path d="M20.9952 2.2432
L20.9952 2.6623
" />
</g></g>
<g style="fill:none; 
stroke:#5994DC; stroke-width:0.2000; stroke-opacity:1; 
stroke-linecap:round; stroke-linejoin:round;">
<path d="M10.1000 5.7500
L10.1000 2.6636
" />
<path d="M26.1000 5.7500
L26.1000 2.6636
" />
<path d="M10.1000 3.2500
L26.1000 3.2500
" />
<path d="M10.1000 3.2500
L26.1000 3.2500
" />
<path d="M10.1000 3.2500
L11.2265 2.6636
" />
<path d="M10.1000 3.2500
L11.2265 3.8364
" />
<path d="M26.1000 3.2500
L24.9735 3.8364
" />
<path d="M26.1000 3.2500
L24.9735 2.6636
" />
</g>
<g style="fill:none; 
stroke:#C83434; stroke-width:0.2000; stroke-opacity:1; 
stroke-linecap:round; stroke-linejoin:round;">
<path d="M74.1000 31.2500
L58.1000 31.2500
" />
<path d="M74.1000 7.2500
L74.1000 31.2500
" />
<path d="M58.1000 7.2500
L74.1000 7.2500
" />
<path d="M58.1000 31.2500
L42.1000 31.2500
" />
<path d="M58.1000 7.2500
L58.1000 31.2500
" />
<path d="M42.1000 7.2500
L58.1000 7.2500
" />
<path d="M42.1000 31.2500
L26.1000 31.2500
" />
<path d="M42.1000 7.2500
L42.1000 31.2500
" />
<path d="M26.1000 7.2500
L42.1000 7.2500
" />
<path d="M10.1000 31.2500
L10.1000 7.2500
" />
<path d="M26.1000 31.2500
L10.1000 31.2500
" />
<path d="M26.1000 7.2500
L26.1000 31.2500
" />
<path d="M10.1000 7.2500
L26.1000 7.2500
" />
</g> 
</svg>
