<?xml version="1.0" standalone="no"?>
 <!DOCTYPE svg PUBLIC "-//W3C//DTD SVG 1.1//EN" 
 "http://www.w3.org/Graphics/SVG/1.1/DTD/svg11.dtd"> 
<svg
  xmlns:svg="http://www.w3.org/2000/svg"
  xmlns="http://www.w3.org/2000/svg"
  xmlns:xlink="http://www.w3.org/1999/xlink"
  version="1.1"
  width="71.3486mm" height="48.1838mm" viewBox="0.0000 0.0000 71.3486 48.1838">
<title>SVG Image created as backplane-connector-pinout-jm2-brd.svg date 2024/10/04 20:22:07 </title>
  <desc>Image generated by PCBNEW </desc>
<g style="fill:#000000; fill-opacity:1.0000;stroke:#000000; stroke-opacity:1.0000;
stroke-linecap:round; stroke-linejoin:round;"
 transform="translate(0 0) scale(1 1)">
</g>
<g style="fill:none; 
stroke:#C2C2C2; stroke-width:0.2000; stroke-opacity:1; 
stroke-linecap:round; stroke-linejoin:round;">
<circle cx="19.2500" cy="44.1000" r="3.0000" /> 
<circle cx="11.2500" cy="4.1000" r="3.0000" /> 
<circle cx="35.2500" cy="4.0353" r="3.0000" /> 
<path d="M71.2500 0.1000
L71.2500 48.1000
" />
<path d="M51.2500 0.1000
L51.2500 48.1000
" />
<circle cx="35.2500" cy="12.0353" r="3.0000" /> 
<path d="M7.2500 0.1000
L51.2500 0.1000
" />
<circle cx="19.2500" cy="4.1000" r="3.0000" /> 
<circle cx="27.2500" cy="36.1000" r="3.0000" /> 
<circle cx="27.2500" cy="4.1000" r="3.0000" /> 
<circle cx="11.2500" cy="12.1000" r="3.0000" /> 
<path d="M61.2500 23.1000
L61.2500 25.1000
" />
<circle cx="27.2500" cy="28.1000" r="3.0000" /> 
<circle cx="11.2500" cy="28.1000" r="3.0000" /> 
<circle cx="11.2500" cy="36.1000" r="3.0000" /> 
<circle cx="11.2500" cy="20.1000" r="3.0000" /> 
<circle cx="35.2500" cy="44.0353" r="3.0000" /> 
<path d="M51.2500 48.1000
L7.2500 48.1000
" />
<path d="M51.2500 2.1000
L71.2500 2.1000
" />
<path d="M71.2500 48.1000
L51.2500 48.1000
" />
<path d="M7.2500 48.1000
L7.2500 0.1000
" />
<circle cx="19.2500" cy="28.1000" r="3.0000" /> 
<circle cx="27.2500" cy="12.1000" r="3.0000" /> 
<circle cx="19.2500" cy="36.1000" r="3.0000" /> 
<path d="M62.2500 26.1000
L71.2500 26.1000
" />
<path d="M61.2500 25.1000
L62.2500 26.1000
" />
<circle cx="35.2500" cy="20.0353" r="3.0007" /> 
<circle cx="11.2500" cy="44.1000" r="3.0000" /> 
<circle cx="35.2500" cy="28.0353" r="3.0007" /> 
<path d="M51.2500 46.1000
L71.2500 46.1000
" />
<circle cx="35.2500" cy="36.0353" r="3.0007" /> 
<circle cx="27.2500" cy="20.1000" r="3.0000" /> 
<circle cx="27.2500" cy="44.1000" r="3.0000" /> 
<path d="M51.2500 0.1000
L71.2500 0.1000
" />
<path d="M71.2500 22.1000
L62.2500 22.1000
" />
<circle cx="19.2500" cy="20.1000" r="3.0000" /> 
<circle cx="19.2500" cy="12.1000" r="3.0000" /> 
<path d="M62.2500 22.1000
L61.2500 23.1000
" />
</g>
<g style="fill:none; 
stroke:#5994DC; stroke-width:0.4000; stroke-opacity:1; 
stroke-linecap:round; stroke-linejoin:round;">
<text x="67.2500" y="44.1000"
textLength="6.5143" font-size="2.6667" lengthAdjust="spacingAndGlyphs"
text-anchor="middle" opacity="0" stroke-opacity="0">JM2</text>
<g class="stroked-text"><desc>JM2</desc>
<path d="M65.4405 42.0044
L65.4405 43.4330
" />
<path d="M65.4405 43.4330
L65.3452 43.7187
" />
<path d="M65.3452 43.7187
L65.1548 43.9092
" />
<path d="M65.1548 43.9092
L64.8690 44.0044
" />
<path d="M64.8690 44.0044
L64.6786 44.0044
" />
<path d="M66.3929 44.0044
L66.3929 42.0044
" />
<path d="M66.3929 42.0044
L67.0595 43.4330
" />
<path d="M67.0595 43.4330
L67.7262 42.0044
" />
<path d="M67.7262 42.0044
L67.7262 44.0044
" />
<path d="M68.5833 42.1949
L68.6786 42.0997
" />
<path d="M68.6786 42.0997
L68.8690 42.0044
" />
<path d="M68.8690 42.0044
L69.3452 42.0044
" />
<path d="M69.3452 42.0044
L69.5357 42.0997
" />
<path d="M69.5357 42.0997
L69.6310 42.1949
" />
<path d="M69.6310 42.1949
L69.7262 42.3854
" />
<path d="M69.7262 42.3854
L69.7262 42.5759
" />
<path d="M69.7262 42.5759
L69.6310 42.8616
" />
<path d="M69.6310 42.8616
L68.4881 44.0044
" />
<path d="M68.4881 44.0044
L69.7262 44.0044
" />
</g></g>
<g style="fill:none; 
stroke:#5994DC; stroke-width:0.1500; stroke-opacity:1; 
stroke-linecap:round; stroke-linejoin:round;">
<text x="35.2500" y="35.8560"
textLength="1.7376" font-size="1.0667" lengthAdjust="spacingAndGlyphs"
text-anchor="middle" opacity="0" stroke-opacity="0">A5</text>
<g class="stroked-text"><desc>A5</desc>
<path d="M34.6786 35.5897
L35.0595 35.5897
" />
<path d="M34.6024 35.8183
L34.8690 35.0183
" />
<path d="M34.8690 35.0183
L35.1357 35.8183
" />
<path d="M35.7833 35.0183
L35.4024 35.0183
" />
<path d="M35.4024 35.0183
L35.3643 35.3993
" />
<path d="M35.3643 35.3993
L35.4024 35.3612
" />
<path d="M35.4024 35.3612
L35.4786 35.3231
" />
<path d="M35.4786 35.3231
L35.6690 35.3231
" />
<path d="M35.6690 35.3231
L35.7452 35.3612
" />
<path d="M35.7452 35.3612
L35.7833 35.3993
" />
<path d="M35.7833 35.3993
L35.8214 35.4755
" />
<path d="M35.8214 35.4755
L35.8214 35.6659
" />
<path d="M35.8214 35.6659
L35.7833 35.7421
" />
<path d="M35.7833 35.7421
L35.7452 35.7802
" />
<path d="M35.7452 35.7802
L35.6690 35.8183
" />
<path d="M35.6690 35.8183
L35.4786 35.8183
" />
<path d="M35.4786 35.8183
L35.4024 35.7802
" />
<path d="M35.4024 35.7802
L35.3643 35.7421
" />
</g><text x="35.2500" y="37.1440"
textLength="3.1471" font-size="1.0667" lengthAdjust="spacingAndGlyphs"
text-anchor="middle" opacity="0" stroke-opacity="0">L1_N</text>
<g class="stroked-text"><desc>L1_N</desc>
<path d="M34.3929 37.1063
L34.0119 37.1063
" />
<path d="M34.0119 37.1063
L34.0119 36.3063
" />
<path d="M35.0786 37.1063
L34.6214 37.1063
" />
<path d="M34.8500 37.1063
L34.8500 36.3063
" />
<path d="M34.8500 36.3063
L34.7738 36.4206
" />
<path d="M34.7738 36.4206
L34.6976 36.4967
" />
<path d="M34.6976 36.4967
L34.6214 36.5348
" />
<path d="M35.2310 37.1825
L35.8405 37.1825
" />
<path d="M36.0310 37.1063
L36.0310 36.3063
" />
<path d="M36.0310 36.3063
L36.4881 37.1063
" />
<path d="M36.4881 37.1063
L36.4881 36.3063
" />
</g><text x="27.2500" y="35.8560"
textLength="1.8519" font-size="1.0667" lengthAdjust="spacingAndGlyphs"
text-anchor="middle" opacity="0" stroke-opacity="0">B5</text>
<g class="stroked-text"><desc>B5</desc>
<path d="M26.9262 35.3993
L27.0405 35.4374
" />
<path d="M27.0405 35.4374
L27.0786 35.4755
" />
<path d="M27.0786 35.4755
L27.1167 35.5517
" />
<path d="M27.1167 35.5517
L27.1167 35.6659
" />
<path d="M27.1167 35.6659
L27.0786 35.7421
" />
<path d="M27.0786 35.7421
L27.0405 35.7802
" />
<path d="M27.0405 35.7802
L26.9643 35.8183
" />
<path d="M26.9643 35.8183
L26.6595 35.8183
" />
<path d="M26.6595 35.8183
L26.6595 35.0183
" />
<path d="M26.6595 35.0183
L26.9262 35.0183
" />
<path d="M26.9262 35.0183
L27.0024 35.0564
" />
<path d="M27.0024 35.0564
L27.0405 35.0945
" />
<path d="M27.0405 35.0945
L27.0786 35.1707
" />
<path d="M27.0786 35.1707
L27.0786 35.2469
" />
<path d="M27.0786 35.2469
L27.0405 35.3231
" />
<path d="M27.0405 35.3231
L27.0024 35.3612
" />
<path d="M27.0024 35.3612
L26.9262 35.3993
" />
<path d="M26.9262 35.3993
L26.6595 35.3993
" />
<path d="M27.8405 35.0183
L27.4595 35.0183
" />
<path d="M27.4595 35.0183
L27.4214 35.3993
" />
<path d="M27.4214 35.3993
L27.4595 35.3612
" />
<path d="M27.4595 35.3612
L27.5357 35.3231
" />
<path d="M27.5357 35.3231
L27.7262 35.3231
" />
<path d="M27.7262 35.3231
L27.8024 35.3612
" />
<path d="M27.8024 35.3612
L27.8405 35.3993
" />
<path d="M27.8405 35.3993
L27.8786 35.4755
" />
<path d="M27.8786 35.4755
L27.8786 35.6659
" />
<path d="M27.8786 35.6659
L27.8405 35.7421
" />
<path d="M27.8405 35.7421
L27.8024 35.7802
" />
<path d="M27.8024 35.7802
L27.7262 35.8183
" />
<path d="M27.7262 35.8183
L27.5357 35.8183
" />
<path d="M27.5357 35.8183
L27.4595 35.7802
" />
<path d="M27.4595 35.7802
L27.4214 35.7421
" />
</g><text x="27.2500" y="37.1440"
textLength="3.1090" font-size="1.0667" lengthAdjust="spacingAndGlyphs"
text-anchor="middle" opacity="0" stroke-opacity="0">L4_P</text>
<g class="stroked-text"><desc>L4_P</desc>
<path d="M26.4119 37.1063
L26.0310 37.1063
" />
<path d="M26.0310 37.1063
L26.0310 36.3063
" />
<path d="M27.0214 36.5729
L27.0214 37.1063
" />
<path d="M26.8310 36.2682
L26.6405 36.8396
" />
<path d="M26.6405 36.8396
L27.1357 36.8396
" />
<path d="M27.2500 37.1825
L27.8595 37.1825
" />
<path d="M28.0500 37.1063
L28.0500 36.3063
" />
<path d="M28.0500 36.3063
L28.3548 36.3063
" />
<path d="M28.3548 36.3063
L28.4310 36.3444
" />
<path d="M28.4310 36.3444
L28.4690 36.3825
" />
<path d="M28.4690 36.3825
L28.5071 36.4587
" />
<path d="M28.5071 36.4587
L28.5071 36.5729
" />
<path d="M28.5071 36.5729
L28.4690 36.6491
" />
<path d="M28.4690 36.6491
L28.4310 36.6872
" />
<path d="M28.4310 36.6872
L28.3548 36.7253
" />
<path d="M28.3548 36.7253
L28.0500 36.7253
" />
</g><text x="19.2500" y="35.8560"
textLength="1.8519" font-size="1.0667" lengthAdjust="spacingAndGlyphs"
text-anchor="middle" opacity="0" stroke-opacity="0">C5</text>
<g class="stroked-text"><desc>C5</desc>
<path d="M19.1167 35.7421
L19.0786 35.7802
" />
<path d="M19.0786 35.7802
L18.9643 35.8183
" />
<path d="M18.9643 35.8183
L18.8881 35.8183
" />
<path d="M18.8881 35.8183
L18.7738 35.7802
" />
<path d="M18.7738 35.7802
L18.6976 35.7040
" />
<path d="M18.6976 35.7040
L18.6595 35.6278
" />
<path d="M18.6595 35.6278
L18.6214 35.4755
" />
<path d="M18.6214 35.4755
L18.6214 35.3612
" />
<path d="M18.6214 35.3612
L18.6595 35.2088
" />
<path d="M18.6595 35.2088
L18.6976 35.1326
" />
<path d="M18.6976 35.1326
L18.7738 35.0564
" />
<path d="M18.7738 35.0564
L18.8881 35.0183
" />
<path d="M18.8881 35.0183
L18.9643 35.0183
" />
<path d="M18.9643 35.0183
L19.0786 35.0564
" />
<path d="M19.0786 35.0564
L19.1167 35.0945
" />
<path d="M19.8405 35.0183
L19.4595 35.0183
" />
<path d="M19.4595 35.0183
L19.4214 35.3993
" />
<path d="M19.4214 35.3993
L19.4595 35.3612
" />
<path d="M19.4595 35.3612
L19.5357 35.3231
" />
<path d="M19.5357 35.3231
L19.7262 35.3231
" />
<path d="M19.7262 35.3231
L19.8024 35.3612
" />
<path d="M19.8024 35.3612
L19.8405 35.3993
" />
<path d="M19.8405 35.3993
L19.8786 35.4755
" />
<path d="M19.8786 35.4755
L19.8786 35.6659
" />
<path d="M19.8786 35.6659
L19.8405 35.7421
" />
<path d="M19.8405 35.7421
L19.8024 35.7802
" />
<path d="M19.8024 35.7802
L19.7262 35.8183
" />
<path d="M19.7262 35.8183
L19.5357 35.8183
" />
<path d="M19.5357 35.8183
L19.4595 35.7802
" />
<path d="M19.4595 35.7802
L19.4214 35.7421
" />
</g><text x="19.2500" y="37.1440"
textLength="3.1471" font-size="1.0667" lengthAdjust="spacingAndGlyphs"
text-anchor="middle" opacity="0" stroke-opacity="0">L6_N</text>
<g class="stroked-text"><desc>L6_N</desc>
<path d="M18.3929 37.1063
L18.0119 37.1063
" />
<path d="M18.0119 37.1063
L18.0119 36.3063
" />
<path d="M19.0024 36.3063
L18.8500 36.3063
" />
<path d="M18.8500 36.3063
L18.7738 36.3444
" />
<path d="M18.7738 36.3444
L18.7357 36.3825
" />
<path d="M18.7357 36.3825
L18.6595 36.4967
" />
<path d="M18.6595 36.4967
L18.6214 36.6491
" />
<path d="M18.6214 36.6491
L18.6214 36.9539
" />
<path d="M18.6214 36.9539
L18.6595 37.0301
" />
<path d="M18.6595 37.0301
L18.6976 37.0682
" />
<path d="M18.6976 37.0682
L18.7738 37.1063
" />
<path d="M18.7738 37.1063
L18.9262 37.1063
" />
<path d="M18.9262 37.1063
L19.0024 37.0682
" />
<path d="M19.0024 37.0682
L19.0405 37.0301
" />
<path d="M19.0405 37.0301
L19.0786 36.9539
" />
<path d="M19.0786 36.9539
L19.0786 36.7634
" />
<path d="M19.0786 36.7634
L19.0405 36.6872
" />
<path d="M19.0405 36.6872
L19.0024 36.6491
" />
<path d="M19.0024 36.6491
L18.9262 36.6110
" />
<path d="M18.9262 36.6110
L18.7738 36.6110
" />
<path d="M18.7738 36.6110
L18.6976 36.6491
" />
<path d="M18.6976 36.6491
L18.6595 36.6872
" />
<path d="M18.6595 36.6872
L18.6214 36.7634
" />
<path d="M19.2310 37.1825
L19.8405 37.1825
" />
<path d="M20.0310 37.1063
L20.0310 36.3063
" />
<path d="M20.0310 36.3063
L20.4881 37.1063
" />
<path d="M20.4881 37.1063
L20.4881 36.3063
" />
</g><text x="11.2500" y="27.8560"
textLength="1.8519" font-size="1.0667" lengthAdjust="spacingAndGlyphs"
text-anchor="middle" opacity="0" stroke-opacity="0">D4</text>
<g class="stroked-text"><desc>D4</desc>
<path d="M10.6595 27.8183
L10.6595 27.0183
" />
<path d="M10.6595 27.0183
L10.8500 27.0183
" />
<path d="M10.8500 27.0183
L10.9643 27.0564
" />
<path d="M10.9643 27.0564
L11.0405 27.1326
" />
<path d="M11.0405 27.1326
L11.0786 27.2088
" />
<path d="M11.0786 27.2088
L11.1167 27.3612
" />
<path d="M11.1167 27.3612
L11.1167 27.4755
" />
<path d="M11.1167 27.4755
L11.0786 27.6278
" />
<path d="M11.0786 27.6278
L11.0405 27.7040
" />
<path d="M11.0405 27.7040
L10.9643 27.7802
" />
<path d="M10.9643 27.7802
L10.8500 27.8183
" />
<path d="M10.8500 27.8183
L10.6595 27.8183
" />
<path d="M11.8024 27.2850
L11.8024 27.8183
" />
<path d="M11.6119 26.9802
L11.4214 27.5517
" />
<path d="M11.4214 27.5517
L11.9167 27.5517
" />
</g><text x="11.2500" y="29.1440"
textLength="3.1471" font-size="1.0667" lengthAdjust="spacingAndGlyphs"
text-anchor="middle" opacity="0" stroke-opacity="0">L8_N</text>
<g class="stroked-text"><desc>L8_N</desc>
<path d="M10.3929 29.1063
L10.0119 29.1063
" />
<path d="M10.0119 29.1063
L10.0119 28.3063
" />
<path d="M10.7738 28.6491
L10.6976 28.6110
" />
<path d="M10.6976 28.6110
L10.6595 28.5729
" />
<path d="M10.6595 28.5729
L10.6214 28.4967
" />
<path d="M10.6214 28.4967
L10.6214 28.4587
" />
<path d="M10.6214 28.4587
L10.6595 28.3825
" />
<path d="M10.6595 28.3825
L10.6976 28.3444
" />
<path d="M10.6976 28.3444
L10.7738 28.3063
" />
<path d="M10.7738 28.3063
L10.9262 28.3063
" />
<path d="M10.9262 28.3063
L11.0024 28.3444
" />
<path d="M11.0024 28.3444
L11.0405 28.3825
" />
<path d="M11.0405 28.3825
L11.0786 28.4587
" />
<path d="M11.0786 28.4587
L11.0786 28.4967
" />
<path d="M11.0786 28.4967
L11.0405 28.5729
" />
<path d="M11.0405 28.5729
L11.0024 28.6110
" />
<path d="M11.0024 28.6110
L10.9262 28.6491
" />
<path d="M10.9262 28.6491
L10.7738 28.6491
" />
<path d="M10.7738 28.6491
L10.6976 28.6872
" />
<path d="M10.6976 28.6872
L10.6595 28.7253
" />
<path d="M10.6595 28.7253
L10.6214 28.8015
" />
<path d="M10.6214 28.8015
L10.6214 28.9539
" />
<path d="M10.6214 28.9539
L10.6595 29.0301
" />
<path d="M10.6595 29.0301
L10.6976 29.0682
" />
<path d="M10.6976 29.0682
L10.7738 29.1063
" />
<path d="M10.7738 29.1063
L10.9262 29.1063
" />
<path d="M10.9262 29.1063
L11.0024 29.0682
" />
<path d="M11.0024 29.0682
L11.0405 29.0301
" />
<path d="M11.0405 29.0301
L11.0786 28.9539
" />
<path d="M11.0786 28.9539
L11.0786 28.8015
" />
<path d="M11.0786 28.8015
L11.0405 28.7253
" />
<path d="M11.0405 28.7253
L11.0024 28.6872
" />
<path d="M11.0024 28.6872
L10.9262 28.6491
" />
<path d="M11.2310 29.1825
L11.8405 29.1825
" />
<path d="M12.0310 29.1063
L12.0310 28.3063
" />
<path d="M12.0310 28.3063
L12.4881 29.1063
" />
<path d="M12.4881 29.1063
L12.4881 28.3063
" />
</g><text x="19.2500" y="19.8560"
textLength="1.8519" font-size="1.0667" lengthAdjust="spacingAndGlyphs"
text-anchor="middle" opacity="0" stroke-opacity="0">C3</text>
<g class="stroked-text"><desc>C3</desc>
<path d="M19.1167 19.7421
L19.0786 19.7802
" />
<path d="M19.0786 19.7802
L18.9643 19.8183
" />
<path d="M18.9643 19.8183
L18.8881 19.8183
" />
<path d="M18.8881 19.8183
L18.7738 19.7802
" />
<path d="M18.7738 19.7802
L18.6976 19.7040
" />
<path d="M18.6976 19.7040
L18.6595 19.6278
" />
<path d="M18.6595 19.6278
L18.6214 19.4755
" />
<path d="M18.6214 19.4755
L18.6214 19.3612
" />
<path d="M18.6214 19.3612
L18.6595 19.2088
" />
<path d="M18.6595 19.2088
L18.6976 19.1326
" />
<path d="M18.6976 19.1326
L18.7738 19.0564
" />
<path d="M18.7738 19.0564
L18.8881 19.0183
" />
<path d="M18.8881 19.0183
L18.9643 19.0183
" />
<path d="M18.9643 19.0183
L19.0786 19.0564
" />
<path d="M19.0786 19.0564
L19.1167 19.0945
" />
<path d="M19.3833 19.0183
L19.8786 19.0183
" />
<path d="M19.8786 19.0183
L19.6119 19.3231
" />
<path d="M19.6119 19.3231
L19.7262 19.3231
" />
<path d="M19.7262 19.3231
L19.8024 19.3612
" />
<path d="M19.8024 19.3612
L19.8405 19.3993
" />
<path d="M19.8405 19.3993
L19.8786 19.4755
" />
<path d="M19.8786 19.4755
L19.8786 19.6659
" />
<path d="M19.8786 19.6659
L19.8405 19.7421
" />
<path d="M19.8405 19.7421
L19.8024 19.7802
" />
<path d="M19.8024 19.7802
L19.7262 19.8183
" />
<path d="M19.7262 19.8183
L19.4976 19.8183
" />
<path d="M19.4976 19.8183
L19.4214 19.7802
" />
<path d="M19.4214 19.7802
L19.3833 19.7421
" />
</g><text x="19.2500" y="21.1440"
textLength="3.1471" font-size="1.0667" lengthAdjust="spacingAndGlyphs"
text-anchor="middle" opacity="0" stroke-opacity="0">L5_N</text>
<g class="stroked-text"><desc>L5_N</desc>
<path d="M18.3929 21.1063
L18.0119 21.1063
" />
<path d="M18.0119 21.1063
L18.0119 20.3063
" />
<path d="M19.0405 20.3063
L18.6595 20.3063
" />
<path d="M18.6595 20.3063
L18.6214 20.6872
" />
<path d="M18.6214 20.6872
L18.6595 20.6491
" />
<path d="M18.6595 20.6491
L18.7357 20.6110
" />
<path d="M18.7357 20.6110
L18.9262 20.6110
" />
<path d="M18.9262 20.6110
L19.0024 20.6491
" />
<path d="M19.0024 20.6491
L19.0405 20.6872
" />
<path d="M19.0405 20.6872
L19.0786 20.7634
" />
<path d="M19.0786 20.7634
L19.0786 20.9539
" />
<path d="M19.0786 20.9539
L19.0405 21.0301
" />
<path d="M19.0405 21.0301
L19.0024 21.0682
" />
<path d="M19.0024 21.0682
L18.9262 21.1063
" />
<path d="M18.9262 21.1063
L18.7357 21.1063
" />
<path d="M18.7357 21.1063
L18.6595 21.0682
" />
<path d="M18.6595 21.0682
L18.6214 21.0301
" />
<path d="M19.2310 21.1825
L19.8405 21.1825
" />
<path d="M20.0310 21.1063
L20.0310 20.3063
" />
<path d="M20.0310 20.3063
L20.4881 21.1063
" />
<path d="M20.4881 21.1063
L20.4881 20.3063
" />
</g><text x="19.2500" y="3.8560"
textLength="1.8519" font-size="1.0667" lengthAdjust="spacingAndGlyphs"
text-anchor="middle" opacity="0" stroke-opacity="0">C1</text>
<g class="stroked-text"><desc>C1</desc>
<path d="M19.1167 3.7421
L19.0786 3.7802
" />
<path d="M19.0786 3.7802
L18.9643 3.8183
" />
<path d="M18.9643 3.8183
L18.8881 3.8183
" />
<path d="M18.8881 3.8183
L18.7738 3.7802
" />
<path d="M18.7738 3.7802
L18.6976 3.7040
" />
<path d="M18.6976 3.7040
L18.6595 3.6278
" />
<path d="M18.6595 3.6278
L18.6214 3.4755
" />
<path d="M18.6214 3.4755
L18.6214 3.3612
" />
<path d="M18.6214 3.3612
L18.6595 3.2088
" />
<path d="M18.6595 3.2088
L18.6976 3.1326
" />
<path d="M18.6976 3.1326
L18.7738 3.0564
" />
<path d="M18.7738 3.0564
L18.8881 3.0183
" />
<path d="M18.8881 3.0183
L18.9643 3.0183
" />
<path d="M18.9643 3.0183
L19.0786 3.0564
" />
<path d="M19.0786 3.0564
L19.1167 3.0945
" />
<path d="M19.8786 3.8183
L19.4214 3.8183
" />
<path d="M19.6500 3.8183
L19.6500 3.0183
" />
<path d="M19.6500 3.0183
L19.5738 3.1326
" />
<path d="M19.5738 3.1326
L19.4976 3.2088
" />
<path d="M19.4976 3.2088
L19.4214 3.2469
" />
</g><text x="19.2500" y="5.1440"
textLength="2.7281" font-size="1.0667" lengthAdjust="spacingAndGlyphs"
text-anchor="middle" opacity="0" stroke-opacity="0">GND</text>
<g class="stroked-text"><desc>GND</desc>
<path d="M18.6405 4.3444
L18.5643 4.3063
" />
<path d="M18.5643 4.3063
L18.4500 4.3063
" />
<path d="M18.4500 4.3063
L18.3357 4.3444
" />
<path d="M18.3357 4.3444
L18.2595 4.4206
" />
<path d="M18.2595 4.4206
L18.2214 4.4967
" />
<path d="M18.2214 4.4967
L18.1833 4.6491
" />
<path d="M18.1833 4.6491
L18.1833 4.7634
" />
<path d="M18.1833 4.7634
L18.2214 4.9158
" />
<path d="M18.2214 4.9158
L18.2595 4.9920
" />
<path d="M18.2595 4.9920
L18.3357 5.0682
" />
<path d="M18.3357 5.0682
L18.4500 5.1063
" />
<path d="M18.4500 5.1063
L18.5262 5.1063
" />
<path d="M18.5262 5.1063
L18.6405 5.0682
" />
<path d="M18.6405 5.0682
L18.6786 5.0301
" />
<path d="M18.6786 5.0301
L18.6786 4.7634
" />
<path d="M18.6786 4.7634
L18.5262 4.7634
" />
<path d="M19.0214 5.1063
L19.0214 4.3063
" />
<path d="M19.0214 4.3063
L19.4786 5.1063
" />
<path d="M19.4786 5.1063
L19.4786 4.3063
" />
<path d="M19.8595 5.1063
L19.8595 4.3063
" />
<path d="M19.8595 4.3063
L20.0500 4.3063
" />
<path d="M20.0500 4.3063
L20.1643 4.3444
" />
<path d="M20.1643 4.3444
L20.2405 4.4206
" />
<path d="M20.2405 4.4206
L20.2786 4.4967
" />
<path d="M20.2786 4.4967
L20.3167 4.6491
" />
<path d="M20.3167 4.6491
L20.3167 4.7634
" />
<path d="M20.3167 4.7634
L20.2786 4.9158
" />
<path d="M20.2786 4.9158
L20.2405 4.9920
" />
<path d="M20.2405 4.9920
L20.1643 5.0682
" />
<path d="M20.1643 5.0682
L20.0500 5.1063
" />
<path d="M20.0500 5.1063
L19.8595 5.1063
" />
</g><text x="35.2500" y="19.7913"
textLength="1.7376" font-size="1.0667" lengthAdjust="spacingAndGlyphs"
text-anchor="middle" opacity="0" stroke-opacity="0">A3</text>
<g class="stroked-text"><desc>A3</desc>
<path d="M34.6786 19.5251
L35.0595 19.5251
" />
<path d="M34.6024 19.7536
L34.8690 18.9536
" />
<path d="M34.8690 18.9536
L35.1357 19.7536
" />
<path d="M35.3262 18.9536
L35.8214 18.9536
" />
<path d="M35.8214 18.9536
L35.5548 19.2584
" />
<path d="M35.5548 19.2584
L35.6690 19.2584
" />
<path d="M35.6690 19.2584
L35.7452 19.2965
" />
<path d="M35.7452 19.2965
L35.7833 19.3346
" />
<path d="M35.7833 19.3346
L35.8214 19.4108
" />
<path d="M35.8214 19.4108
L35.8214 19.6013
" />
<path d="M35.8214 19.6013
L35.7833 19.6774
" />
<path d="M35.7833 19.6774
L35.7452 19.7155
" />
<path d="M35.7452 19.7155
L35.6690 19.7536
" />
<path d="M35.6690 19.7536
L35.4405 19.7536
" />
<path d="M35.4405 19.7536
L35.3643 19.7155
" />
<path d="M35.3643 19.7155
L35.3262 19.6774
" />
</g><text x="35.2500" y="21.0793"
textLength="3.1471" font-size="1.0667" lengthAdjust="spacingAndGlyphs"
text-anchor="middle" opacity="0" stroke-opacity="0">L0_N</text>
<g class="stroked-text"><desc>L0_N</desc>
<path d="M34.3929 21.0416
L34.0119 21.0416
" />
<path d="M34.0119 21.0416
L34.0119 20.2416
" />
<path d="M34.8119 20.2416
L34.8881 20.2416
" />
<path d="M34.8881 20.2416
L34.9643 20.2797
" />
<path d="M34.9643 20.2797
L35.0024 20.3178
" />
<path d="M35.0024 20.3178
L35.0405 20.3940
" />
<path d="M35.0405 20.3940
L35.0786 20.5464
" />
<path d="M35.0786 20.5464
L35.0786 20.7368
" />
<path d="M35.0786 20.7368
L35.0405 20.8892
" />
<path d="M35.0405 20.8892
L35.0024 20.9654
" />
<path d="M35.0024 20.9654
L34.9643 21.0035
" />
<path d="M34.9643 21.0035
L34.8881 21.0416
" />
<path d="M34.8881 21.0416
L34.8119 21.0416
" />
<path d="M34.8119 21.0416
L34.7357 21.0035
" />
<path d="M34.7357 21.0035
L34.6976 20.9654
" />
<path d="M34.6976 20.9654
L34.6595 20.8892
" />
<path d="M34.6595 20.8892
L34.6214 20.7368
" />
<path d="M34.6214 20.7368
L34.6214 20.5464
" />
<path d="M34.6214 20.5464
L34.6595 20.3940
" />
<path d="M34.6595 20.3940
L34.6976 20.3178
" />
<path d="M34.6976 20.3178
L34.7357 20.2797
" />
<path d="M34.7357 20.2797
L34.8119 20.2416
" />
<path d="M35.2310 21.1178
L35.8405 21.1178
" />
<path d="M36.0310 21.0416
L36.0310 20.2416
" />
<path d="M36.0310 20.2416
L36.4881 21.0416
" />
<path d="M36.4881 21.0416
L36.4881 20.2416
" />
</g><text x="27.2500" y="43.8560"
textLength="1.8519" font-size="1.0667" lengthAdjust="spacingAndGlyphs"
text-anchor="middle" opacity="0" stroke-opacity="0">B6</text>
<g class="stroked-text"><desc>B6</desc>
<path d="M26.9262 43.3993
L27.0405 43.4374
" />
<path d="M27.0405 43.4374
L27.0786 43.4755
" />
<path d="M27.0786 43.4755
L27.1167 43.5517
" />
<path d="M27.1167 43.5517
L27.1167 43.6659
" />
<path d="M27.1167 43.6659
L27.0786 43.7421
" />
<path d="M27.0786 43.7421
L27.0405 43.7802
" />
<path d="M27.0405 43.7802
L26.9643 43.8183
" />
<path d="M26.9643 43.8183
L26.6595 43.8183
" />
<path d="M26.6595 43.8183
L26.6595 43.0183
" />
<path d="M26.6595 43.0183
L26.9262 43.0183
" />
<path d="M26.9262 43.0183
L27.0024 43.0564
" />
<path d="M27.0024 43.0564
L27.0405 43.0945
" />
<path d="M27.0405 43.0945
L27.0786 43.1707
" />
<path d="M27.0786 43.1707
L27.0786 43.2469
" />
<path d="M27.0786 43.2469
L27.0405 43.3231
" />
<path d="M27.0405 43.3231
L27.0024 43.3612
" />
<path d="M27.0024 43.3612
L26.9262 43.3993
" />
<path d="M26.9262 43.3993
L26.6595 43.3993
" />
<path d="M27.8024 43.0183
L27.6500 43.0183
" />
<path d="M27.6500 43.0183
L27.5738 43.0564
" />
<path d="M27.5738 43.0564
L27.5357 43.0945
" />
<path d="M27.5357 43.0945
L27.4595 43.2088
" />
<path d="M27.4595 43.2088
L27.4214 43.3612
" />
<path d="M27.4214 43.3612
L27.4214 43.6659
" />
<path d="M27.4214 43.6659
L27.4595 43.7421
" />
<path d="M27.4595 43.7421
L27.4976 43.7802
" />
<path d="M27.4976 43.7802
L27.5738 43.8183
" />
<path d="M27.5738 43.8183
L27.7262 43.8183
" />
<path d="M27.7262 43.8183
L27.8024 43.7802
" />
<path d="M27.8024 43.7802
L27.8405 43.7421
" />
<path d="M27.8405 43.7421
L27.8786 43.6659
" />
<path d="M27.8786 43.6659
L27.8786 43.4755
" />
<path d="M27.8786 43.4755
L27.8405 43.3993
" />
<path d="M27.8405 43.3993
L27.8024 43.3612
" />
<path d="M27.8024 43.3612
L27.7262 43.3231
" />
<path d="M27.7262 43.3231
L27.5738 43.3231
" />
<path d="M27.5738 43.3231
L27.4976 43.3612
" />
<path d="M27.4976 43.3612
L27.4595 43.3993
" />
<path d="M27.4595 43.3993
L27.4214 43.4755
" />
</g><text x="27.2500" y="45.1440"
textLength="3.1471" font-size="1.0667" lengthAdjust="spacingAndGlyphs"
text-anchor="middle" opacity="0" stroke-opacity="0">L4_N</text>
<g class="stroked-text"><desc>L4_N</desc>
<path d="M26.3929 45.1063
L26.0119 45.1063
" />
<path d="M26.0119 45.1063
L26.0119 44.3063
" />
<path d="M27.0024 44.5729
L27.0024 45.1063
" />
<path d="M26.8119 44.2682
L26.6214 44.8396
" />
<path d="M26.6214 44.8396
L27.1167 44.8396
" />
<path d="M27.2310 45.1825
L27.8405 45.1825
" />
<path d="M28.0310 45.1063
L28.0310 44.3063
" />
<path d="M28.0310 44.3063
L28.4881 45.1063
" />
<path d="M28.4881 45.1063
L28.4881 44.3063
" />
</g><text x="11.2500" y="35.8560"
textLength="1.8519" font-size="1.0667" lengthAdjust="spacingAndGlyphs"
text-anchor="middle" opacity="0" stroke-opacity="0">D5</text>
<g class="stroked-text"><desc>D5</desc>
<path d="M10.6595 35.8183
L10.6595 35.0183
" />
<path d="M10.6595 35.0183
L10.8500 35.0183
" />
<path d="M10.8500 35.0183
L10.9643 35.0564
" />
<path d="M10.9643 35.0564
L11.0405 35.1326
" />
<path d="M11.0405 35.1326
L11.0786 35.2088
" />
<path d="M11.0786 35.2088
L11.1167 35.3612
" />
<path d="M11.1167 35.3612
L11.1167 35.4755
" />
<path d="M11.1167 35.4755
L11.0786 35.6278
" />
<path d="M11.0786 35.6278
L11.0405 35.7040
" />
<path d="M11.0405 35.7040
L10.9643 35.7802
" />
<path d="M10.9643 35.7802
L10.8500 35.8183
" />
<path d="M10.8500 35.8183
L10.6595 35.8183
" />
<path d="M11.8405 35.0183
L11.4595 35.0183
" />
<path d="M11.4595 35.0183
L11.4214 35.3993
" />
<path d="M11.4214 35.3993
L11.4595 35.3612
" />
<path d="M11.4595 35.3612
L11.5357 35.3231
" />
<path d="M11.5357 35.3231
L11.7262 35.3231
" />
<path d="M11.7262 35.3231
L11.8024 35.3612
" />
<path d="M11.8024 35.3612
L11.8405 35.3993
" />
<path d="M11.8405 35.3993
L11.8786 35.4755
" />
<path d="M11.8786 35.4755
L11.8786 35.6659
" />
<path d="M11.8786 35.6659
L11.8405 35.7421
" />
<path d="M11.8405 35.7421
L11.8024 35.7802
" />
<path d="M11.8024 35.7802
L11.7262 35.8183
" />
<path d="M11.7262 35.8183
L11.5357 35.8183
" />
<path d="M11.5357 35.8183
L11.4595 35.7802
" />
<path d="M11.4595 35.7802
L11.4214 35.7421
" />
</g><text x="11.2500" y="37.1440"
textLength="3.1090" font-size="1.0667" lengthAdjust="spacingAndGlyphs"
text-anchor="middle" opacity="0" stroke-opacity="0">L9_P</text>
<g class="stroked-text"><desc>L9_P</desc>
<path d="M10.4119 37.1063
L10.0310 37.1063
" />
<path d="M10.0310 37.1063
L10.0310 36.3063
" />
<path d="M10.7167 37.1063
L10.8690 37.1063
" />
<path d="M10.8690 37.1063
L10.9452 37.0682
" />
<path d="M10.9452 37.0682
L10.9833 37.0301
" />
<path d="M10.9833 37.0301
L11.0595 36.9158
" />
<path d="M11.0595 36.9158
L11.0976 36.7634
" />
<path d="M11.0976 36.7634
L11.0976 36.4587
" />
<path d="M11.0976 36.4587
L11.0595 36.3825
" />
<path d="M11.0595 36.3825
L11.0214 36.3444
" />
<path d="M11.0214 36.3444
L10.9452 36.3063
" />
<path d="M10.9452 36.3063
L10.7929 36.3063
" />
<path d="M10.7929 36.3063
L10.7167 36.3444
" />
<path d="M10.7167 36.3444
L10.6786 36.3825
" />
<path d="M10.6786 36.3825
L10.6405 36.4587
" />
<path d="M10.6405 36.4587
L10.6405 36.6491
" />
<path d="M10.6405 36.6491
L10.6786 36.7253
" />
<path d="M10.6786 36.7253
L10.7167 36.7634
" />
<path d="M10.7167 36.7634
L10.7929 36.8015
" />
<path d="M10.7929 36.8015
L10.9452 36.8015
" />
<path d="M10.9452 36.8015
L11.0214 36.7634
" />
<path d="M11.0214 36.7634
L11.0595 36.7253
" />
<path d="M11.0595 36.7253
L11.0976 36.6491
" />
<path d="M11.2500 37.1825
L11.8595 37.1825
" />
<path d="M12.0500 37.1063
L12.0500 36.3063
" />
<path d="M12.0500 36.3063
L12.3548 36.3063
" />
<path d="M12.3548 36.3063
L12.4310 36.3444
" />
<path d="M12.4310 36.3444
L12.4690 36.3825
" />
<path d="M12.4690 36.3825
L12.5071 36.4587
" />
<path d="M12.5071 36.4587
L12.5071 36.5729
" />
<path d="M12.5071 36.5729
L12.4690 36.6491
" />
<path d="M12.4690 36.6491
L12.4310 36.6872
" />
<path d="M12.4310 36.6872
L12.3548 36.7253
" />
<path d="M12.3548 36.7253
L12.0500 36.7253
" />
</g><text x="11.2500" y="43.8560"
textLength="1.8519" font-size="1.0667" lengthAdjust="spacingAndGlyphs"
text-anchor="middle" opacity="0" stroke-opacity="0">D6</text>
<g class="stroked-text"><desc>D6</desc>
<path d="M10.6595 43.8183
L10.6595 43.0183
" />
<path d="M10.6595 43.0183
L10.8500 43.0183
" />
<path d="M10.8500 43.0183
L10.9643 43.0564
" />
<path d="M10.9643 43.0564
L11.0405 43.1326
" />
<path d="M11.0405 43.1326
L11.0786 43.2088
" />
<path d="M11.0786 43.2088
L11.1167 43.3612
" />
<path d="M11.1167 43.3612
L11.1167 43.4755
" />
<path d="M11.1167 43.4755
L11.0786 43.6278
" />
<path d="M11.0786 43.6278
L11.0405 43.7040
" />
<path d="M11.0405 43.7040
L10.9643 43.7802
" />
<path d="M10.9643 43.7802
L10.8500 43.8183
" />
<path d="M10.8500 43.8183
L10.6595 43.8183
" />
<path d="M11.8024 43.0183
L11.6500 43.0183
" />
<path d="M11.6500 43.0183
L11.5738 43.0564
" />
<path d="M11.5738 43.0564
L11.5357 43.0945
" />
<path d="M11.5357 43.0945
L11.4595 43.2088
" />
<path d="M11.4595 43.2088
L11.4214 43.3612
" />
<path d="M11.4214 43.3612
L11.4214 43.6659
" />
<path d="M11.4214 43.6659
L11.4595 43.7421
" />
<path d="M11.4595 43.7421
L11.4976 43.7802
" />
<path d="M11.4976 43.7802
L11.5738 43.8183
" />
<path d="M11.5738 43.8183
L11.7262 43.8183
" />
<path d="M11.7262 43.8183
L11.8024 43.7802
" />
<path d="M11.8024 43.7802
L11.8405 43.7421
" />
<path d="M11.8405 43.7421
L11.8786 43.6659
" />
<path d="M11.8786 43.6659
L11.8786 43.4755
" />
<path d="M11.8786 43.4755
L11.8405 43.3993
" />
<path d="M11.8405 43.3993
L11.8024 43.3612
" />
<path d="M11.8024 43.3612
L11.7262 43.3231
" />
<path d="M11.7262 43.3231
L11.5738 43.3231
" />
<path d="M11.5738 43.3231
L11.4976 43.3612
" />
<path d="M11.4976 43.3612
L11.4595 43.3993
" />
<path d="M11.4595 43.3993
L11.4214 43.4755
" />
</g><text x="11.2500" y="45.1440"
textLength="3.1471" font-size="1.0667" lengthAdjust="spacingAndGlyphs"
text-anchor="middle" opacity="0" stroke-opacity="0">L9_N</text>
<g class="stroked-text"><desc>L9_N</desc>
<path d="M10.3929 45.1063
L10.0119 45.1063
" />
<path d="M10.0119 45.1063
L10.0119 44.3063
" />
<path d="M10.6976 45.1063
L10.8500 45.1063
" />
<path d="M10.8500 45.1063
L10.9262 45.0682
" />
<path d="M10.9262 45.0682
L10.9643 45.0301
" />
<path d="M10.9643 45.0301
L11.0405 44.9158
" />
<path d="M11.0405 44.9158
L11.0786 44.7634
" />
<path d="M11.0786 44.7634
L11.0786 44.4587
" />
<path d="M11.0786 44.4587
L11.0405 44.3825
" />
<path d="M11.0405 44.3825
L11.0024 44.3444
" />
<path d="M11.0024 44.3444
L10.9262 44.3063
" />
<path d="M10.9262 44.3063
L10.7738 44.3063
" />
<path d="M10.7738 44.3063
L10.6976 44.3444
" />
<path d="M10.6976 44.3444
L10.6595 44.3825
" />
<path d="M10.6595 44.3825
L10.6214 44.4587
" />
<path d="M10.6214 44.4587
L10.6214 44.6491
" />
<path d="M10.6214 44.6491
L10.6595 44.7253
" />
<path d="M10.6595 44.7253
L10.6976 44.7634
" />
<path d="M10.6976 44.7634
L10.7738 44.8015
" />
<path d="M10.7738 44.8015
L10.9262 44.8015
" />
<path d="M10.9262 44.8015
L11.0024 44.7634
" />
<path d="M11.0024 44.7634
L11.0405 44.7253
" />
<path d="M11.0405 44.7253
L11.0786 44.6491
" />
<path d="M11.2310 45.1825
L11.8405 45.1825
" />
<path d="M12.0310 45.1063
L12.0310 44.3063
" />
<path d="M12.0310 44.3063
L12.4881 45.1063
" />
<path d="M12.4881 45.1063
L12.4881 44.3063
" />
</g><text x="11.2500" y="3.8560"
textLength="1.8519" font-size="1.0667" lengthAdjust="spacingAndGlyphs"
text-anchor="middle" opacity="0" stroke-opacity="0">D1</text>
<g class="stroked-text"><desc>D1</desc>
<path d="M10.6595 3.8183
L10.6595 3.0183
" />
<path d="M10.6595 3.0183
L10.8500 3.0183
" />
<path d="M10.8500 3.0183
L10.9643 3.0564
" />
<path d="M10.9643 3.0564
L11.0405 3.1326
" />
<path d="M11.0405 3.1326
L11.0786 3.2088
" />
<path d="M11.0786 3.2088
L11.1167 3.3612
" />
<path d="M11.1167 3.3612
L11.1167 3.4755
" />
<path d="M11.1167 3.4755
L11.0786 3.6278
" />
<path d="M11.0786 3.6278
L11.0405 3.7040
" />
<path d="M11.0405 3.7040
L10.9643 3.7802
" />
<path d="M10.9643 3.7802
L10.8500 3.8183
" />
<path d="M10.8500 3.8183
L10.6595 3.8183
" />
<path d="M11.8786 3.8183
L11.4214 3.8183
" />
<path d="M11.6500 3.8183
L11.6500 3.0183
" />
<path d="M11.6500 3.0183
L11.5738 3.1326
" />
<path d="M11.5738 3.1326
L11.4976 3.2088
" />
<path d="M11.4976 3.2088
L11.4214 3.2469
" />
</g><text x="11.2500" y="5.1440"
textLength="3.1090" font-size="1.0667" lengthAdjust="spacingAndGlyphs"
text-anchor="middle" opacity="0" stroke-opacity="0">L7_P</text>
<g class="stroked-text"><desc>L7_P</desc>
<path d="M10.4119 5.1063
L10.0310 5.1063
" />
<path d="M10.0310 5.1063
L10.0310 4.3063
" />
<path d="M10.6024 4.3063
L11.1357 4.3063
" />
<path d="M11.1357 4.3063
L10.7929 5.1063
" />
<path d="M11.2500 5.1825
L11.8595 5.1825
" />
<path d="M12.0500 5.1063
L12.0500 4.3063
" />
<path d="M12.0500 4.3063
L12.3548 4.3063
" />
<path d="M12.3548 4.3063
L12.4310 4.3444
" />
<path d="M12.4310 4.3444
L12.4690 4.3825
" />
<path d="M12.4690 4.3825
L12.5071 4.4587
" />
<path d="M12.5071 4.4587
L12.5071 4.5729
" />
<path d="M12.5071 4.5729
L12.4690 4.6491
" />
<path d="M12.4690 4.6491
L12.4310 4.6872
" />
<path d="M12.4310 4.6872
L12.3548 4.7253
" />
<path d="M12.3548 4.7253
L12.0500 4.7253
" />
</g><text x="35.2500" y="11.7913"
textLength="1.7376" font-size="1.0667" lengthAdjust="spacingAndGlyphs"
text-anchor="middle" opacity="0" stroke-opacity="0">A2</text>
<g class="stroked-text"><desc>A2</desc>
<path d="M34.6786 11.5251
L35.0595 11.5251
" />
<path d="M34.6024 11.7536
L34.8690 10.9536
" />
<path d="M34.8690 10.9536
L35.1357 11.7536
" />
<path d="M35.3643 11.0298
L35.4024 10.9917
" />
<path d="M35.4024 10.9917
L35.4786 10.9536
" />
<path d="M35.4786 10.9536
L35.6690 10.9536
" />
<path d="M35.6690 10.9536
L35.7452 10.9917
" />
<path d="M35.7452 10.9917
L35.7833 11.0298
" />
<path d="M35.7833 11.0298
L35.8214 11.1060
" />
<path d="M35.8214 11.1060
L35.8214 11.1822
" />
<path d="M35.8214 11.1822
L35.7833 11.2965
" />
<path d="M35.7833 11.2965
L35.3262 11.7536
" />
<path d="M35.3262 11.7536
L35.8214 11.7536
" />
</g><text x="35.2500" y="13.0793"
textLength="3.1090" font-size="1.0667" lengthAdjust="spacingAndGlyphs"
text-anchor="middle" opacity="0" stroke-opacity="0">L0_P</text>
<g class="stroked-text"><desc>L0_P</desc>
<path d="M34.4119 13.0416
L34.0310 13.0416
" />
<path d="M34.0310 13.0416
L34.0310 12.2416
" />
<path d="M34.8310 12.2416
L34.9071 12.2416
" />
<path d="M34.9071 12.2416
L34.9833 12.2797
" />
<path d="M34.9833 12.2797
L35.0214 12.3178
" />
<path d="M35.0214 12.3178
L35.0595 12.3940
" />
<path d="M35.0595 12.3940
L35.0976 12.5464
" />
<path d="M35.0976 12.5464
L35.0976 12.7368
" />
<path d="M35.0976 12.7368
L35.0595 12.8892
" />
<path d="M35.0595 12.8892
L35.0214 12.9654
" />
<path d="M35.0214 12.9654
L34.9833 13.0035
" />
<path d="M34.9833 13.0035
L34.9071 13.0416
" />
<path d="M34.9071 13.0416
L34.8310 13.0416
" />
<path d="M34.8310 13.0416
L34.7548 13.0035
" />
<path d="M34.7548 13.0035
L34.7167 12.9654
" />
<path d="M34.7167 12.9654
L34.6786 12.8892
" />
<path d="M34.6786 12.8892
L34.6405 12.7368
" />
<path d="M34.6405 12.7368
L34.6405 12.5464
" />
<path d="M34.6405 12.5464
L34.6786 12.3940
" />
<path d="M34.6786 12.3940
L34.7167 12.3178
" />
<path d="M34.7167 12.3178
L34.7548 12.2797
" />
<path d="M34.7548 12.2797
L34.8310 12.2416
" />
<path d="M35.2500 13.1178
L35.8595 13.1178
" />
<path d="M36.0500 13.0416
L36.0500 12.2416
" />
<path d="M36.0500 12.2416
L36.3548 12.2416
" />
<path d="M36.3548 12.2416
L36.4310 12.2797
" />
<path d="M36.4310 12.2797
L36.4690 12.3178
" />
<path d="M36.4690 12.3178
L36.5071 12.3940
" />
<path d="M36.5071 12.3940
L36.5071 12.5083
" />
<path d="M36.5071 12.5083
L36.4690 12.5844
" />
<path d="M36.4690 12.5844
L36.4310 12.6225
" />
<path d="M36.4310 12.6225
L36.3548 12.6606
" />
<path d="M36.3548 12.6606
L36.0500 12.6606
" />
</g><text x="11.2500" y="19.8560"
textLength="1.8519" font-size="1.0667" lengthAdjust="spacingAndGlyphs"
text-anchor="middle" opacity="0" stroke-opacity="0">D3</text>
<g class="stroked-text"><desc>D3</desc>
<path d="M10.6595 19.8183
L10.6595 19.0183
" />
<path d="M10.6595 19.0183
L10.8500 19.0183
" />
<path d="M10.8500 19.0183
L10.9643 19.0564
" />
<path d="M10.9643 19.0564
L11.0405 19.1326
" />
<path d="M11.0405 19.1326
L11.0786 19.2088
" />
<path d="M11.0786 19.2088
L11.1167 19.3612
" />
<path d="M11.1167 19.3612
L11.1167 19.4755
" />
<path d="M11.1167 19.4755
L11.0786 19.6278
" />
<path d="M11.0786 19.6278
L11.0405 19.7040
" />
<path d="M11.0405 19.7040
L10.9643 19.7802
" />
<path d="M10.9643 19.7802
L10.8500 19.8183
" />
<path d="M10.8500 19.8183
L10.6595 19.8183
" />
<path d="M11.3833 19.0183
L11.8786 19.0183
" />
<path d="M11.8786 19.0183
L11.6119 19.3231
" />
<path d="M11.6119 19.3231
L11.7262 19.3231
" />
<path d="M11.7262 19.3231
L11.8024 19.3612
" />
<path d="M11.8024 19.3612
L11.8405 19.3993
" />
<path d="M11.8405 19.3993
L11.8786 19.4755
" />
<path d="M11.8786 19.4755
L11.8786 19.6659
" />
<path d="M11.8786 19.6659
L11.8405 19.7421
" />
<path d="M11.8405 19.7421
L11.8024 19.7802
" />
<path d="M11.8024 19.7802
L11.7262 19.8183
" />
<path d="M11.7262 19.8183
L11.4976 19.8183
" />
<path d="M11.4976 19.8183
L11.4214 19.7802
" />
<path d="M11.4214 19.7802
L11.3833 19.7421
" />
</g><text x="11.2500" y="21.1440"
textLength="3.1090" font-size="1.0667" lengthAdjust="spacingAndGlyphs"
text-anchor="middle" opacity="0" stroke-opacity="0">L8_P</text>
<g class="stroked-text"><desc>L8_P</desc>
<path d="M10.4119 21.1063
L10.0310 21.1063
" />
<path d="M10.0310 21.1063
L10.0310 20.3063
" />
<path d="M10.7929 20.6491
L10.7167 20.6110
" />
<path d="M10.7167 20.6110
L10.6786 20.5729
" />
<path d="M10.6786 20.5729
L10.6405 20.4967
" />
<path d="M10.6405 20.4967
L10.6405 20.4587
" />
<path d="M10.6405 20.4587
L10.6786 20.3825
" />
<path d="M10.6786 20.3825
L10.7167 20.3444
" />
<path d="M10.7167 20.3444
L10.7929 20.3063
" />
<path d="M10.7929 20.3063
L10.9452 20.3063
" />
<path d="M10.9452 20.3063
L11.0214 20.3444
" />
<path d="M11.0214 20.3444
L11.0595 20.3825
" />
<path d="M11.0595 20.3825
L11.0976 20.4587
" />
<path d="M11.0976 20.4587
L11.0976 20.4967
" />
<path d="M11.0976 20.4967
L11.0595 20.5729
" />
<path d="M11.0595 20.5729
L11.0214 20.6110
" />
<path d="M11.0214 20.6110
L10.9452 20.6491
" />
<path d="M10.9452 20.6491
L10.7929 20.6491
" />
<path d="M10.7929 20.6491
L10.7167 20.6872
" />
<path d="M10.7167 20.6872
L10.6786 20.7253
" />
<path d="M10.6786 20.7253
L10.6405 20.8015
" />
<path d="M10.6405 20.8015
L10.6405 20.9539
" />
<path d="M10.6405 20.9539
L10.6786 21.0301
" />
<path d="M10.6786 21.0301
L10.7167 21.0682
" />
<path d="M10.7167 21.0682
L10.7929 21.1063
" />
<path d="M10.7929 21.1063
L10.9452 21.1063
" />
<path d="M10.9452 21.1063
L11.0214 21.0682
" />
<path d="M11.0214 21.0682
L11.0595 21.0301
" />
<path d="M11.0595 21.0301
L11.0976 20.9539
" />
<path d="M11.0976 20.9539
L11.0976 20.8015
" />
<path d="M11.0976 20.8015
L11.0595 20.7253
" />
<path d="M11.0595 20.7253
L11.0214 20.6872
" />
<path d="M11.0214 20.6872
L10.9452 20.6491
" />
<path d="M11.2500 21.1825
L11.8595 21.1825
" />
<path d="M12.0500 21.1063
L12.0500 20.3063
" />
<path d="M12.0500 20.3063
L12.3548 20.3063
" />
<path d="M12.3548 20.3063
L12.4310 20.3444
" />
<path d="M12.4310 20.3444
L12.4690 20.3825
" />
<path d="M12.4690 20.3825
L12.5071 20.4587
" />
<path d="M12.5071 20.4587
L12.5071 20.5729
" />
<path d="M12.5071 20.5729
L12.4690 20.6491
" />
<path d="M12.4690 20.6491
L12.4310 20.6872
" />
<path d="M12.4310 20.6872
L12.3548 20.7253
" />
<path d="M12.3548 20.7253
L12.0500 20.7253
" />
</g><text x="35.2500" y="43.7913"
textLength="1.7376" font-size="1.0667" lengthAdjust="spacingAndGlyphs"
text-anchor="middle" opacity="0" stroke-opacity="0">A6</text>
<g class="stroked-text"><desc>A6</desc>
<path d="M34.6786 43.5251
L35.0595 43.5251
" />
<path d="M34.6024 43.7536
L34.8690 42.9536
" />
<path d="M34.8690 42.9536
L35.1357 43.7536
" />
<path d="M35.7452 42.9536
L35.5929 42.9536
" />
<path d="M35.5929 42.9536
L35.5167 42.9917
" />
<path d="M35.5167 42.9917
L35.4786 43.0298
" />
<path d="M35.4786 43.0298
L35.4024 43.1441
" />
<path d="M35.4024 43.1441
L35.3643 43.2965
" />
<path d="M35.3643 43.2965
L35.3643 43.6013
" />
<path d="M35.3643 43.6013
L35.4024 43.6774
" />
<path d="M35.4024 43.6774
L35.4405 43.7155
" />
<path d="M35.4405 43.7155
L35.5167 43.7536
" />
<path d="M35.5167 43.7536
L35.6690 43.7536
" />
<path d="M35.6690 43.7536
L35.7452 43.7155
" />
<path d="M35.7452 43.7155
L35.7833 43.6774
" />
<path d="M35.7833 43.6774
L35.8214 43.6013
" />
<path d="M35.8214 43.6013
L35.8214 43.4108
" />
<path d="M35.8214 43.4108
L35.7833 43.3346
" />
<path d="M35.7833 43.3346
L35.7452 43.2965
" />
<path d="M35.7452 43.2965
L35.6690 43.2584
" />
<path d="M35.6690 43.2584
L35.5167 43.2584
" />
<path d="M35.5167 43.2584
L35.4405 43.2965
" />
<path d="M35.4405 43.2965
L35.4024 43.3346
" />
<path d="M35.4024 43.3346
L35.3643 43.4108
" />
</g><text x="35.2500" y="45.0793"
textLength="2.7281" font-size="1.0667" lengthAdjust="spacingAndGlyphs"
text-anchor="middle" opacity="0" stroke-opacity="0">GND</text>
<g class="stroked-text"><desc>GND</desc>
<path d="M34.6405 44.2797
L34.5643 44.2416
" />
<path d="M34.5643 44.2416
L34.4500 44.2416
" />
<path d="M34.4500 44.2416
L34.3357 44.2797
" />
<path d="M34.3357 44.2797
L34.2595 44.3559
" />
<path d="M34.2595 44.3559
L34.2214 44.4321
" />
<path d="M34.2214 44.4321
L34.1833 44.5844
" />
<path d="M34.1833 44.5844
L34.1833 44.6987
" />
<path d="M34.1833 44.6987
L34.2214 44.8511
" />
<path d="M34.2214 44.8511
L34.2595 44.9273
" />
<path d="M34.2595 44.9273
L34.3357 45.0035
" />
<path d="M34.3357 45.0035
L34.4500 45.0416
" />
<path d="M34.4500 45.0416
L34.5262 45.0416
" />
<path d="M34.5262 45.0416
L34.6405 45.0035
" />
<path d="M34.6405 45.0035
L34.6786 44.9654
" />
<path d="M34.6786 44.9654
L34.6786 44.6987
" />
<path d="M34.6786 44.6987
L34.5262 44.6987
" />
<path d="M35.0214 45.0416
L35.0214 44.2416
" />
<path d="M35.0214 44.2416
L35.4786 45.0416
" />
<path d="M35.4786 45.0416
L35.4786 44.2416
" />
<path d="M35.8595 45.0416
L35.8595 44.2416
" />
<path d="M35.8595 44.2416
L36.0500 44.2416
" />
<path d="M36.0500 44.2416
L36.1643 44.2797
" />
<path d="M36.1643 44.2797
L36.2405 44.3559
" />
<path d="M36.2405 44.3559
L36.2786 44.4321
" />
<path d="M36.2786 44.4321
L36.3167 44.5844
" />
<path d="M36.3167 44.5844
L36.3167 44.6987
" />
<path d="M36.3167 44.6987
L36.2786 44.8511
" />
<path d="M36.2786 44.8511
L36.2405 44.9273
" />
<path d="M36.2405 44.9273
L36.1643 45.0035
" />
<path d="M36.1643 45.0035
L36.0500 45.0416
" />
<path d="M36.0500 45.0416
L35.8595 45.0416
" />
</g><text x="27.2500" y="3.8560"
textLength="1.8519" font-size="1.0667" lengthAdjust="spacingAndGlyphs"
text-anchor="middle" opacity="0" stroke-opacity="0">B1</text>
<g class="stroked-text"><desc>B1</desc>
<path d="M26.9262 3.3993
L27.0405 3.4374
" />
<path d="M27.0405 3.4374
L27.0786 3.4755
" />
<path d="M27.0786 3.4755
L27.1167 3.5517
" />
<path d="M27.1167 3.5517
L27.1167 3.6659
" />
<path d="M27.1167 3.6659
L27.0786 3.7421
" />
<path d="M27.0786 3.7421
L27.0405 3.7802
" />
<path d="M27.0405 3.7802
L26.9643 3.8183
" />
<path d="M26.9643 3.8183
L26.6595 3.8183
" />
<path d="M26.6595 3.8183
L26.6595 3.0183
" />
<path d="M26.6595 3.0183
L26.9262 3.0183
" />
<path d="M26.9262 3.0183
L27.0024 3.0564
" />
<path d="M27.0024 3.0564
L27.0405 3.0945
" />
<path d="M27.0405 3.0945
L27.0786 3.1707
" />
<path d="M27.0786 3.1707
L27.0786 3.2469
" />
<path d="M27.0786 3.2469
L27.0405 3.3231
" />
<path d="M27.0405 3.3231
L27.0024 3.3612
" />
<path d="M27.0024 3.3612
L26.9262 3.3993
" />
<path d="M26.9262 3.3993
L26.6595 3.3993
" />
<path d="M27.8786 3.8183
L27.4214 3.8183
" />
<path d="M27.6500 3.8183
L27.6500 3.0183
" />
<path d="M27.6500 3.0183
L27.5738 3.1326
" />
<path d="M27.5738 3.1326
L27.4976 3.2088
" />
<path d="M27.4976 3.2088
L27.4214 3.2469
" />
</g><text x="27.2500" y="5.1440"
textLength="3.1090" font-size="1.0667" lengthAdjust="spacingAndGlyphs"
text-anchor="middle" opacity="0" stroke-opacity="0">L2_P</text>
<g class="stroked-text"><desc>L2_P</desc>
<path d="M26.4119 5.1063
L26.0310 5.1063
" />
<path d="M26.0310 5.1063
L26.0310 4.3063
" />
<path d="M26.6405 4.3825
L26.6786 4.3444
" />
<path d="M26.6786 4.3444
L26.7548 4.3063
" />
<path d="M26.7548 4.3063
L26.9452 4.3063
" />
<path d="M26.9452 4.3063
L27.0214 4.3444
" />
<path d="M27.0214 4.3444
L27.0595 4.3825
" />
<path d="M27.0595 4.3825
L27.0976 4.4587
" />
<path d="M27.0976 4.4587
L27.0976 4.5348
" />
<path d="M27.0976 4.5348
L27.0595 4.6491
" />
<path d="M27.0595 4.6491
L26.6024 5.1063
" />
<path d="M26.6024 5.1063
L27.0976 5.1063
" />
<path d="M27.2500 5.1825
L27.8595 5.1825
" />
<path d="M28.0500 5.1063
L28.0500 4.3063
" />
<path d="M28.0500 4.3063
L28.3548 4.3063
" />
<path d="M28.3548 4.3063
L28.4310 4.3444
" />
<path d="M28.4310 4.3444
L28.4690 4.3825
" />
<path d="M28.4690 4.3825
L28.5071 4.4587
" />
<path d="M28.5071 4.4587
L28.5071 4.5729
" />
<path d="M28.5071 4.5729
L28.4690 4.6491
" />
<path d="M28.4690 4.6491
L28.4310 4.6872
" />
<path d="M28.4310 4.6872
L28.3548 4.7253
" />
<path d="M28.3548 4.7253
L28.0500 4.7253
" />
</g><text x="11.2500" y="11.8560"
textLength="1.8519" font-size="1.0667" lengthAdjust="spacingAndGlyphs"
text-anchor="middle" opacity="0" stroke-opacity="0">D2</text>
<g class="stroked-text"><desc>D2</desc>
<path d="M10.6595 11.8183
L10.6595 11.0183
" />
<path d="M10.6595 11.0183
L10.8500 11.0183
" />
<path d="M10.8500 11.0183
L10.9643 11.0564
" />
<path d="M10.9643 11.0564
L11.0405 11.1326
" />
<path d="M11.0405 11.1326
L11.0786 11.2088
" />
<path d="M11.0786 11.2088
L11.1167 11.3612
" />
<path d="M11.1167 11.3612
L11.1167 11.4755
" />
<path d="M11.1167 11.4755
L11.0786 11.6278
" />
<path d="M11.0786 11.6278
L11.0405 11.7040
" />
<path d="M11.0405 11.7040
L10.9643 11.7802
" />
<path d="M10.9643 11.7802
L10.8500 11.8183
" />
<path d="M10.8500 11.8183
L10.6595 11.8183
" />
<path d="M11.4214 11.0945
L11.4595 11.0564
" />
<path d="M11.4595 11.0564
L11.5357 11.0183
" />
<path d="M11.5357 11.0183
L11.7262 11.0183
" />
<path d="M11.7262 11.0183
L11.8024 11.0564
" />
<path d="M11.8024 11.0564
L11.8405 11.0945
" />
<path d="M11.8405 11.0945
L11.8786 11.1707
" />
<path d="M11.8786 11.1707
L11.8786 11.2469
" />
<path d="M11.8786 11.2469
L11.8405 11.3612
" />
<path d="M11.8405 11.3612
L11.3833 11.8183
" />
<path d="M11.3833 11.8183
L11.8786 11.8183
" />
</g><text x="11.2500" y="13.1440"
textLength="3.1471" font-size="1.0667" lengthAdjust="spacingAndGlyphs"
text-anchor="middle" opacity="0" stroke-opacity="0">L7_N</text>
<g class="stroked-text"><desc>L7_N</desc>
<path d="M10.3929 13.1063
L10.0119 13.1063
" />
<path d="M10.0119 13.1063
L10.0119 12.3063
" />
<path d="M10.5833 12.3063
L11.1167 12.3063
" />
<path d="M11.1167 12.3063
L10.7738 13.1063
" />
<path d="M11.2310 13.1825
L11.8405 13.1825
" />
<path d="M12.0310 13.1063
L12.0310 12.3063
" />
<path d="M12.0310 12.3063
L12.4881 13.1063
" />
<path d="M12.4881 13.1063
L12.4881 12.3063
" />
</g><text x="27.2500" y="19.8560"
textLength="1.8519" font-size="1.0667" lengthAdjust="spacingAndGlyphs"
text-anchor="middle" opacity="0" stroke-opacity="0">B3</text>
<g class="stroked-text"><desc>B3</desc>
<path d="M26.9262 19.3993
L27.0405 19.4374
" />
<path d="M27.0405 19.4374
L27.0786 19.4755
" />
<path d="M27.0786 19.4755
L27.1167 19.5517
" />
<path d="M27.1167 19.5517
L27.1167 19.6659
" />
<path d="M27.1167 19.6659
L27.0786 19.7421
" />
<path d="M27.0786 19.7421
L27.0405 19.7802
" />
<path d="M27.0405 19.7802
L26.9643 19.8183
" />
<path d="M26.9643 19.8183
L26.6595 19.8183
" />
<path d="M26.6595 19.8183
L26.6595 19.0183
" />
<path d="M26.6595 19.0183
L26.9262 19.0183
" />
<path d="M26.9262 19.0183
L27.0024 19.0564
" />
<path d="M27.0024 19.0564
L27.0405 19.0945
" />
<path d="M27.0405 19.0945
L27.0786 19.1707
" />
<path d="M27.0786 19.1707
L27.0786 19.2469
" />
<path d="M27.0786 19.2469
L27.0405 19.3231
" />
<path d="M27.0405 19.3231
L27.0024 19.3612
" />
<path d="M27.0024 19.3612
L26.9262 19.3993
" />
<path d="M26.9262 19.3993
L26.6595 19.3993
" />
<path d="M27.3833 19.0183
L27.8786 19.0183
" />
<path d="M27.8786 19.0183
L27.6119 19.3231
" />
<path d="M27.6119 19.3231
L27.7262 19.3231
" />
<path d="M27.7262 19.3231
L27.8024 19.3612
" />
<path d="M27.8024 19.3612
L27.8405 19.3993
" />
<path d="M27.8405 19.3993
L27.8786 19.4755
" />
<path d="M27.8786 19.4755
L27.8786 19.6659
" />
<path d="M27.8786 19.6659
L27.8405 19.7421
" />
<path d="M27.8405 19.7421
L27.8024 19.7802
" />
<path d="M27.8024 19.7802
L27.7262 19.8183
" />
<path d="M27.7262 19.8183
L27.4976 19.8183
" />
<path d="M27.4976 19.8183
L27.4214 19.7802
" />
<path d="M27.4214 19.7802
L27.3833 19.7421
" />
</g><text x="27.2500" y="21.1440"
textLength="3.1090" font-size="1.0667" lengthAdjust="spacingAndGlyphs"
text-anchor="middle" opacity="0" stroke-opacity="0">L3_P</text>
<g class="stroked-text"><desc>L3_P</desc>
<path d="M26.4119 21.1063
L26.0310 21.1063
" />
<path d="M26.0310 21.1063
L26.0310 20.3063
" />
<path d="M26.6024 20.3063
L27.0976 20.3063
" />
<path d="M27.0976 20.3063
L26.8310 20.6110
" />
<path d="M26.8310 20.6110
L26.9452 20.6110
" />
<path d="M26.9452 20.6110
L27.0214 20.6491
" />
<path d="M27.0214 20.6491
L27.0595 20.6872
" />
<path d="M27.0595 20.6872
L27.0976 20.7634
" />
<path d="M27.0976 20.7634
L27.0976 20.9539
" />
<path d="M27.0976 20.9539
L27.0595 21.0301
" />
<path d="M27.0595 21.0301
L27.0214 21.0682
" />
<path d="M27.0214 21.0682
L26.9452 21.1063
" />
<path d="M26.9452 21.1063
L26.7167 21.1063
" />
<path d="M26.7167 21.1063
L26.6405 21.0682
" />
<path d="M26.6405 21.0682
L26.6024 21.0301
" />
<path d="M27.2500 21.1825
L27.8595 21.1825
" />
<path d="M28.0500 21.1063
L28.0500 20.3063
" />
<path d="M28.0500 20.3063
L28.3548 20.3063
" />
<path d="M28.3548 20.3063
L28.4310 20.3444
" />
<path d="M28.4310 20.3444
L28.4690 20.3825
" />
<path d="M28.4690 20.3825
L28.5071 20.4587
" />
<path d="M28.5071 20.4587
L28.5071 20.5729
" />
<path d="M28.5071 20.5729
L28.4690 20.6491
" />
<path d="M28.4690 20.6491
L28.4310 20.6872
" />
<path d="M28.4310 20.6872
L28.3548 20.7253
" />
<path d="M28.3548 20.7253
L28.0500 20.7253
" />
</g><text x="27.2500" y="11.8560"
textLength="1.8519" font-size="1.0667" lengthAdjust="spacingAndGlyphs"
text-anchor="middle" opacity="0" stroke-opacity="0">B2</text>
<g class="stroked-text"><desc>B2</desc>
<path d="M26.9262 11.3993
L27.0405 11.4374
" />
<path d="M27.0405 11.4374
L27.0786 11.4755
" />
<path d="M27.0786 11.4755
L27.1167 11.5517
" />
<path d="M27.1167 11.5517
L27.1167 11.6659
" />
<path d="M27.1167 11.6659
L27.0786 11.7421
" />
<path d="M27.0786 11.7421
L27.0405 11.7802
" />
<path d="M27.0405 11.7802
L26.9643 11.8183
" />
<path d="M26.9643 11.8183
L26.6595 11.8183
" />
<path d="M26.6595 11.8183
L26.6595 11.0183
" />
<path d="M26.6595 11.0183
L26.9262 11.0183
" />
<path d="M26.9262 11.0183
L27.0024 11.0564
" />
<path d="M27.0024 11.0564
L27.0405 11.0945
" />
<path d="M27.0405 11.0945
L27.0786 11.1707
" />
<path d="M27.0786 11.1707
L27.0786 11.2469
" />
<path d="M27.0786 11.2469
L27.0405 11.3231
" />
<path d="M27.0405 11.3231
L27.0024 11.3612
" />
<path d="M27.0024 11.3612
L26.9262 11.3993
" />
<path d="M26.9262 11.3993
L26.6595 11.3993
" />
<path d="M27.4214 11.0945
L27.4595 11.0564
" />
<path d="M27.4595 11.0564
L27.5357 11.0183
" />
<path d="M27.5357 11.0183
L27.7262 11.0183
" />
<path d="M27.7262 11.0183
L27.8024 11.0564
" />
<path d="M27.8024 11.0564
L27.8405 11.0945
" />
<path d="M27.8405 11.0945
L27.8786 11.1707
" />
<path d="M27.8786 11.1707
L27.8786 11.2469
" />
<path d="M27.8786 11.2469
L27.8405 11.3612
" />
<path d="M27.8405 11.3612
L27.3833 11.8183
" />
<path d="M27.3833 11.8183
L27.8786 11.8183
" />
</g><text x="27.2500" y="13.1440"
textLength="3.1471" font-size="1.0667" lengthAdjust="spacingAndGlyphs"
text-anchor="middle" opacity="0" stroke-opacity="0">L2_N</text>
<g class="stroked-text"><desc>L2_N</desc>
<path d="M26.3929 13.1063
L26.0119 13.1063
" />
<path d="M26.0119 13.1063
L26.0119 12.3063
" />
<path d="M26.6214 12.3825
L26.6595 12.3444
" />
<path d="M26.6595 12.3444
L26.7357 12.3063
" />
<path d="M26.7357 12.3063
L26.9262 12.3063
" />
<path d="M26.9262 12.3063
L27.0024 12.3444
" />
<path d="M27.0024 12.3444
L27.0405 12.3825
" />
<path d="M27.0405 12.3825
L27.0786 12.4587
" />
<path d="M27.0786 12.4587
L27.0786 12.5348
" />
<path d="M27.0786 12.5348
L27.0405 12.6491
" />
<path d="M27.0405 12.6491
L26.5833 13.1063
" />
<path d="M26.5833 13.1063
L27.0786 13.1063
" />
<path d="M27.2310 13.1825
L27.8405 13.1825
" />
<path d="M28.0310 13.1063
L28.0310 12.3063
" />
<path d="M28.0310 12.3063
L28.4881 13.1063
" />
<path d="M28.4881 13.1063
L28.4881 12.3063
" />
</g><text x="19.2500" y="11.8560"
textLength="1.8519" font-size="1.0667" lengthAdjust="spacingAndGlyphs"
text-anchor="middle" opacity="0" stroke-opacity="0">C2</text>
<g class="stroked-text"><desc>C2</desc>
<path d="M19.1167 11.7421
L19.0786 11.7802
" />
<path d="M19.0786 11.7802
L18.9643 11.8183
" />
<path d="M18.9643 11.8183
L18.8881 11.8183
" />
<path d="M18.8881 11.8183
L18.7738 11.7802
" />
<path d="M18.7738 11.7802
L18.6976 11.7040
" />
<path d="M18.6976 11.7040
L18.6595 11.6278
" />
<path d="M18.6595 11.6278
L18.6214 11.4755
" />
<path d="M18.6214 11.4755
L18.6214 11.3612
" />
<path d="M18.6214 11.3612
L18.6595 11.2088
" />
<path d="M18.6595 11.2088
L18.6976 11.1326
" />
<path d="M18.6976 11.1326
L18.7738 11.0564
" />
<path d="M18.7738 11.0564
L18.8881 11.0183
" />
<path d="M18.8881 11.0183
L18.9643 11.0183
" />
<path d="M18.9643 11.0183
L19.0786 11.0564
" />
<path d="M19.0786 11.0564
L19.1167 11.0945
" />
<path d="M19.4214 11.0945
L19.4595 11.0564
" />
<path d="M19.4595 11.0564
L19.5357 11.0183
" />
<path d="M19.5357 11.0183
L19.7262 11.0183
" />
<path d="M19.7262 11.0183
L19.8024 11.0564
" />
<path d="M19.8024 11.0564
L19.8405 11.0945
" />
<path d="M19.8405 11.0945
L19.8786 11.1707
" />
<path d="M19.8786 11.1707
L19.8786 11.2469
" />
<path d="M19.8786 11.2469
L19.8405 11.3612
" />
<path d="M19.8405 11.3612
L19.3833 11.8183
" />
<path d="M19.3833 11.8183
L19.8786 11.8183
" />
</g><text x="19.2500" y="13.1440"
textLength="3.1090" font-size="1.0667" lengthAdjust="spacingAndGlyphs"
text-anchor="middle" opacity="0" stroke-opacity="0">L5_P</text>
<g class="stroked-text"><desc>L5_P</desc>
<path d="M18.4119 13.1063
L18.0310 13.1063
" />
<path d="M18.0310 13.1063
L18.0310 12.3063
" />
<path d="M19.0595 12.3063
L18.6786 12.3063
" />
<path d="M18.6786 12.3063
L18.6405 12.6872
" />
<path d="M18.6405 12.6872
L18.6786 12.6491
" />
<path d="M18.6786 12.6491
L18.7548 12.6110
" />
<path d="M18.7548 12.6110
L18.9452 12.6110
" />
<path d="M18.9452 12.6110
L19.0214 12.6491
" />
<path d="M19.0214 12.6491
L19.0595 12.6872
" />
<path d="M19.0595 12.6872
L19.0976 12.7634
" />
<path d="M19.0976 12.7634
L19.0976 12.9539
" />
<path d="M19.0976 12.9539
L19.0595 13.0301
" />
<path d="M19.0595 13.0301
L19.0214 13.0682
" />
<path d="M19.0214 13.0682
L18.9452 13.1063
" />
<path d="M18.9452 13.1063
L18.7548 13.1063
" />
<path d="M18.7548 13.1063
L18.6786 13.0682
" />
<path d="M18.6786 13.0682
L18.6405 13.0301
" />
<path d="M19.2500 13.1825
L19.8595 13.1825
" />
<path d="M20.0500 13.1063
L20.0500 12.3063
" />
<path d="M20.0500 12.3063
L20.3548 12.3063
" />
<path d="M20.3548 12.3063
L20.4310 12.3444
" />
<path d="M20.4310 12.3444
L20.4690 12.3825
" />
<path d="M20.4690 12.3825
L20.5071 12.4587
" />
<path d="M20.5071 12.4587
L20.5071 12.5729
" />
<path d="M20.5071 12.5729
L20.4690 12.6491
" />
<path d="M20.4690 12.6491
L20.4310 12.6872
" />
<path d="M20.4310 12.6872
L20.3548 12.7253
" />
<path d="M20.3548 12.7253
L20.0500 12.7253
" />
</g><text x="35.2500" y="3.7913"
textLength="1.7376" font-size="1.0667" lengthAdjust="spacingAndGlyphs"
text-anchor="middle" opacity="0" stroke-opacity="0">A1</text>
<g class="stroked-text"><desc>A1</desc>
<path d="M34.6786 3.5251
L35.0595 3.5251
" />
<path d="M34.6024 3.7536
L34.8690 2.9536
" />
<path d="M34.8690 2.9536
L35.1357 3.7536
" />
<path d="M35.8214 3.7536
L35.3643 3.7536
" />
<path d="M35.5929 3.7536
L35.5929 2.9536
" />
<path d="M35.5929 2.9536
L35.5167 3.0679
" />
<path d="M35.5167 3.0679
L35.4405 3.1441
" />
<path d="M35.4405 3.1441
L35.3643 3.1822
" />
</g><text x="35.2500" y="5.0793"
textLength="2.7281" font-size="1.0667" lengthAdjust="spacingAndGlyphs"
text-anchor="middle" opacity="0" stroke-opacity="0">GND</text>
<g class="stroked-text"><desc>GND</desc>
<path d="M34.6405 4.2797
L34.5643 4.2416
" />
<path d="M34.5643 4.2416
L34.4500 4.2416
" />
<path d="M34.4500 4.2416
L34.3357 4.2797
" />
<path d="M34.3357 4.2797
L34.2595 4.3559
" />
<path d="M34.2595 4.3559
L34.2214 4.4321
" />
<path d="M34.2214 4.4321
L34.1833 4.5844
" />
<path d="M34.1833 4.5844
L34.1833 4.6987
" />
<path d="M34.1833 4.6987
L34.2214 4.8511
" />
<path d="M34.2214 4.8511
L34.2595 4.9273
" />
<path d="M34.2595 4.9273
L34.3357 5.0035
" />
<path d="M34.3357 5.0035
L34.4500 5.0416
" />
<path d="M34.4500 5.0416
L34.5262 5.0416
" />
<path d="M34.5262 5.0416
L34.6405 5.0035
" />
<path d="M34.6405 5.0035
L34.6786 4.9654
" />
<path d="M34.6786 4.9654
L34.6786 4.6987
" />
<path d="M34.6786 4.6987
L34.5262 4.6987
" />
<path d="M35.0214 5.0416
L35.0214 4.2416
" />
<path d="M35.0214 4.2416
L35.4786 5.0416
" />
<path d="M35.4786 5.0416
L35.4786 4.2416
" />
<path d="M35.8595 5.0416
L35.8595 4.2416
" />
<path d="M35.8595 4.2416
L36.0500 4.2416
" />
<path d="M36.0500 4.2416
L36.1643 4.2797
" />
<path d="M36.1643 4.2797
L36.2405 4.3559
" />
<path d="M36.2405 4.3559
L36.2786 4.4321
" />
<path d="M36.2786 4.4321
L36.3167 4.5844
" />
<path d="M36.3167 4.5844
L36.3167 4.6987
" />
<path d="M36.3167 4.6987
L36.2786 4.8511
" />
<path d="M36.2786 4.8511
L36.2405 4.9273
" />
<path d="M36.2405 4.9273
L36.1643 5.0035
" />
<path d="M36.1643 5.0035
L36.0500 5.0416
" />
<path d="M36.0500 5.0416
L35.8595 5.0416
" />
</g><text x="19.2500" y="43.8560"
textLength="1.8519" font-size="1.0667" lengthAdjust="spacingAndGlyphs"
text-anchor="middle" opacity="0" stroke-opacity="0">C6</text>
<g class="stroked-text"><desc>C6</desc>
<path d="M19.1167 43.7421
L19.0786 43.7802
" />
<path d="M19.0786 43.7802
L18.9643 43.8183
" />
<path d="M18.9643 43.8183
L18.8881 43.8183
" />
<path d="M18.8881 43.8183
L18.7738 43.7802
" />
<path d="M18.7738 43.7802
L18.6976 43.7040
" />
<path d="M18.6976 43.7040
L18.6595 43.6278
" />
<path d="M18.6595 43.6278
L18.6214 43.4755
" />
<path d="M18.6214 43.4755
L18.6214 43.3612
" />
<path d="M18.6214 43.3612
L18.6595 43.2088
" />
<path d="M18.6595 43.2088
L18.6976 43.1326
" />
<path d="M18.6976 43.1326
L18.7738 43.0564
" />
<path d="M18.7738 43.0564
L18.8881 43.0183
" />
<path d="M18.8881 43.0183
L18.9643 43.0183
" />
<path d="M18.9643 43.0183
L19.0786 43.0564
" />
<path d="M19.0786 43.0564
L19.1167 43.0945
" />
<path d="M19.8024 43.0183
L19.6500 43.0183
" />
<path d="M19.6500 43.0183
L19.5738 43.0564
" />
<path d="M19.5738 43.0564
L19.5357 43.0945
" />
<path d="M19.5357 43.0945
L19.4595 43.2088
" />
<path d="M19.4595 43.2088
L19.4214 43.3612
" />
<path d="M19.4214 43.3612
L19.4214 43.6659
" />
<path d="M19.4214 43.6659
L19.4595 43.7421
" />
<path d="M19.4595 43.7421
L19.4976 43.7802
" />
<path d="M19.4976 43.7802
L19.5738 43.8183
" />
<path d="M19.5738 43.8183
L19.7262 43.8183
" />
<path d="M19.7262 43.8183
L19.8024 43.7802
" />
<path d="M19.8024 43.7802
L19.8405 43.7421
" />
<path d="M19.8405 43.7421
L19.8786 43.6659
" />
<path d="M19.8786 43.6659
L19.8786 43.4755
" />
<path d="M19.8786 43.4755
L19.8405 43.3993
" />
<path d="M19.8405 43.3993
L19.8024 43.3612
" />
<path d="M19.8024 43.3612
L19.7262 43.3231
" />
<path d="M19.7262 43.3231
L19.5738 43.3231
" />
<path d="M19.5738 43.3231
L19.4976 43.3612
" />
<path d="M19.4976 43.3612
L19.4595 43.3993
" />
<path d="M19.4595 43.3993
L19.4214 43.4755
" />
</g><text x="19.2500" y="45.1440"
textLength="2.7281" font-size="1.0667" lengthAdjust="spacingAndGlyphs"
text-anchor="middle" opacity="0" stroke-opacity="0">GND</text>
<g class="stroked-text"><desc>GND</desc>
<path d="M18.6405 44.3444
L18.5643 44.3063
" />
<path d="M18.5643 44.3063
L18.4500 44.3063
" />
<path d="M18.4500 44.3063
L18.3357 44.3444
" />
<path d="M18.3357 44.3444
L18.2595 44.4206
" />
<path d="M18.2595 44.4206
L18.2214 44.4967
" />
<path d="M18.2214 44.4967
L18.1833 44.6491
" />
<path d="M18.1833 44.6491
L18.1833 44.7634
" />
<path d="M18.1833 44.7634
L18.2214 44.9158
" />
<path d="M18.2214 44.9158
L18.2595 44.9920
" />
<path d="M18.2595 44.9920
L18.3357 45.0682
" />
<path d="M18.3357 45.0682
L18.4500 45.1063
" />
<path d="M18.4500 45.1063
L18.5262 45.1063
" />
<path d="M18.5262 45.1063
L18.6405 45.0682
" />
<path d="M18.6405 45.0682
L18.6786 45.0301
" />
<path d="M18.6786 45.0301
L18.6786 44.7634
" />
<path d="M18.6786 44.7634
L18.5262 44.7634
" />
<path d="M19.0214 45.1063
L19.0214 44.3063
" />
<path d="M19.0214 44.3063
L19.4786 45.1063
" />
<path d="M19.4786 45.1063
L19.4786 44.3063
" />
<path d="M19.8595 45.1063
L19.8595 44.3063
" />
<path d="M19.8595 44.3063
L20.0500 44.3063
" />
<path d="M20.0500 44.3063
L20.1643 44.3444
" />
<path d="M20.1643 44.3444
L20.2405 44.4206
" />
<path d="M20.2405 44.4206
L20.2786 44.4967
" />
<path d="M20.2786 44.4967
L20.3167 44.6491
" />
<path d="M20.3167 44.6491
L20.3167 44.7634
" />
<path d="M20.3167 44.7634
L20.2786 44.9158
" />
<path d="M20.2786 44.9158
L20.2405 44.9920
" />
<path d="M20.2405 44.9920
L20.1643 45.0682
" />
<path d="M20.1643 45.0682
L20.0500 45.1063
" />
<path d="M20.0500 45.1063
L19.8595 45.1063
" />
</g><text x="60.2500" y="15.5000"
textLength="6.4233" font-size="1.0667" lengthAdjust="spacingAndGlyphs"
text-anchor="middle" opacity="0" stroke-opacity="0">Backplane</text>
<g class="stroked-text"><desc>Backplane</desc>
<path d="M57.6405 15.0432
L57.7548 15.0813
" />
<path d="M57.7548 15.0813
L57.7929 15.1194
" />
<path d="M57.7929 15.1194
L57.8310 15.1956
" />
<path d="M57.8310 15.1956
L57.8310 15.3099
" />
<path d="M57.8310 15.3099
L57.7929 15.3861
" />
<path d="M57.7929 15.3861
L57.7548 15.4242
" />
<path d="M57.7548 15.4242
L57.6786 15.4623
" />
<path d="M57.6786 15.4623
L57.3738 15.4623
" />
<path d="M57.3738 15.4623
L57.3738 14.6623
" />
<path d="M57.3738 14.6623
L57.6405 14.6623
" />
<path d="M57.6405 14.6623
L57.7167 14.7004
" />
<path d="M57.7167 14.7004
L57.7548 14.7385
" />
<path d="M57.7548 14.7385
L57.7929 14.8147
" />
<path d="M57.7929 14.8147
L57.7929 14.8909
" />
<path d="M57.7929 14.8909
L57.7548 14.9671
" />
<path d="M57.7548 14.9671
L57.7167 15.0052
" />
<path d="M57.7167 15.0052
L57.6405 15.0432
" />
<path d="M57.6405 15.0432
L57.3738 15.0432
" />
<path d="M58.5167 15.4623
L58.5167 15.0432
" />
<path d="M58.5167 15.0432
L58.4786 14.9671
" />
<path d="M58.4786 14.9671
L58.4024 14.9290
" />
<path d="M58.4024 14.9290
L58.2500 14.9290
" />
<path d="M58.2500 14.9290
L58.1738 14.9671
" />
<path d="M58.5167 15.4242
L58.4405 15.4623
" />
<path d="M58.4405 15.4623
L58.2500 15.4623
" />
<path d="M58.2500 15.4623
L58.1738 15.4242
" />
<path d="M58.1738 15.4242
L58.1357 15.3480
" />
<path d="M58.1357 15.3480
L58.1357 15.2718
" />
<path d="M58.1357 15.2718
L58.1738 15.1956
" />
<path d="M58.1738 15.1956
L58.2500 15.1575
" />
<path d="M58.2500 15.1575
L58.4405 15.1575
" />
<path d="M58.4405 15.1575
L58.5167 15.1194
" />
<path d="M59.2405 15.4242
L59.1643 15.4623
" />
<path d="M59.1643 15.4623
L59.0119 15.4623
" />
<path d="M59.0119 15.4623
L58.9357 15.4242
" />
<path d="M58.9357 15.4242
L58.8976 15.3861
" />
<path d="M58.8976 15.3861
L58.8595 15.3099
" />
<path d="M58.8595 15.3099
L58.8595 15.0813
" />
<path d="M58.8595 15.0813
L58.8976 15.0052
" />
<path d="M58.8976 15.0052
L58.9357 14.9671
" />
<path d="M58.9357 14.9671
L59.0119 14.9290
" />
<path d="M59.0119 14.9290
L59.1643 14.9290
" />
<path d="M59.1643 14.9290
L59.2405 14.9671
" />
<path d="M59.5833 15.4623
L59.5833 14.6623
" />
<path d="M59.6595 15.1575
L59.8881 15.4623
" />
<path d="M59.8881 14.9290
L59.5833 15.2337
" />
<path d="M60.2310 14.9290
L60.2310 15.7290
" />
<path d="M60.2310 14.9671
L60.3071 14.9290
" />
<path d="M60.3071 14.9290
L60.4595 14.9290
" />
<path d="M60.4595 14.9290
L60.5357 14.9671
" />
<path d="M60.5357 14.9671
L60.5738 15.0052
" />
<path d="M60.5738 15.0052
L60.6119 15.0813
" />
<path d="M60.6119 15.0813
L60.6119 15.3099
" />
<path d="M60.6119 15.3099
L60.5738 15.3861
" />
<path d="M60.5738 15.3861
L60.5357 15.4242
" />
<path d="M60.5357 15.4242
L60.4595 15.4623
" />
<path d="M60.4595 15.4623
L60.3071 15.4623
" />
<path d="M60.3071 15.4623
L60.2310 15.4242
" />
<path d="M61.0690 15.4623
L60.9929 15.4242
" />
<path d="M60.9929 15.4242
L60.9548 15.3480
" />
<path d="M60.9548 15.3480
L60.9548 14.6623
" />
<path d="M61.7167 15.4623
L61.7167 15.0432
" />
<path d="M61.7167 15.0432
L61.6786 14.9671
" />
<path d="M61.6786 14.9671
L61.6024 14.9290
" />
<path d="M61.6024 14.9290
L61.4500 14.9290
" />
<path d="M61.4500 14.9290
L61.3738 14.9671
" />
<path d="M61.7167 15.4242
L61.6405 15.4623
" />
<path d="M61.6405 15.4623
L61.4500 15.4623
" />
<path d="M61.4500 15.4623
L61.3738 15.4242
" />
<path d="M61.3738 15.4242
L61.3357 15.3480
" />
<path d="M61.3357 15.3480
L61.3357 15.2718
" />
<path d="M61.3357 15.2718
L61.3738 15.1956
" />
<path d="M61.3738 15.1956
L61.4500 15.1575
" />
<path d="M61.4500 15.1575
L61.6405 15.1575
" />
<path d="M61.6405 15.1575
L61.7167 15.1194
" />
<path d="M62.0976 14.9290
L62.0976 15.4623
" />
<path d="M62.0976 15.0052
L62.1357 14.9671
" />
<path d="M62.1357 14.9671
L62.2119 14.9290
" />
<path d="M62.2119 14.9290
L62.3262 14.9290
" />
<path d="M62.3262 14.9290
L62.4024 14.9671
" />
<path d="M62.4024 14.9671
L62.4405 15.0432
" />
<path d="M62.4405 15.0432
L62.4405 15.4623
" />
<path d="M63.1262 15.4242
L63.0500 15.4623
" />
<path d="M63.0500 15.4623
L62.8976 15.4623
" />
<path d="M62.8976 15.4623
L62.8214 15.4242
" />
<path d="M62.8214 15.4242
L62.7833 15.3480
" />
<path d="M62.7833 15.3480
L62.7833 15.0432
" />
<path d="M62.7833 15.0432
L62.8214 14.9671
" />
<path d="M62.8214 14.9671
L62.8976 14.9290
" />
<path d="M62.8976 14.9290
L63.0500 14.9290
" />
<path d="M63.0500 14.9290
L63.1262 14.9671
" />
<path d="M63.1262 14.9671
L63.1643 15.0432
" />
<path d="M63.1643 15.0432
L63.1643 15.1194
" />
<path d="M63.1643 15.1194
L62.7833 15.1956
" />
</g></g>
<g style="fill:none; 
stroke:#5994DC; stroke-width:0.2000; stroke-opacity:1; 
stroke-linecap:round; stroke-linejoin:round;">
<path d="M66.7500 15.1000
L65.2500 15.1000
" />
<path d="M66.7500 15.1000
L65.6235 15.6864
" />
<path d="M66.7500 15.1000
L65.6235 14.5136
" />
<path d="M56.6383 14.0687
L56.6383 16.1312
" />
<path d="M56.6383 16.1312
L63.8617 16.1312
" />
<path d="M63.8617 16.1312
L63.8617 14.0687
" />
<path d="M63.8617 14.0687
L56.6383 14.0687
" />
<path d="M65.2500 15.1000
L63.8617 15.1000
" />
<path d="M66.7500 15.1000
L65.2500 15.1000
" />
<path d="M66.7500 15.1000
L65.6235 15.6864
" />
<path d="M66.7500 15.1000
L65.6235 14.5136
" />
<path d="M56.6383 14.0687
L56.6383 16.1312
" />
<path d="M56.6383 16.1312
L63.8617 16.1312
" />
<path d="M63.8617 16.1312
L63.8617 14.0687
" />
<path d="M63.8617 14.0687
L56.6383 14.0687
" />
<path d="M65.2500 15.1000
L63.8617 15.1000
" />
</g>
<g style="fill:none; 
stroke:#5994DC; stroke-width:0.1500; stroke-opacity:1; 
stroke-linecap:round; stroke-linejoin:round;">
<text x="35.2500" y="27.8560"
textLength="1.7376" font-size="1.0667" lengthAdjust="spacingAndGlyphs"
text-anchor="middle" opacity="0" stroke-opacity="0">A4</text>
<g class="stroked-text"><desc>A4</desc>
<path d="M34.6786 27.5897
L35.0595 27.5897
" />
<path d="M34.6024 27.8183
L34.8690 27.0183
" />
<path d="M34.8690 27.0183
L35.1357 27.8183
" />
<path d="M35.7452 27.2850
L35.7452 27.8183
" />
<path d="M35.5548 26.9802
L35.3643 27.5517
" />
<path d="M35.3643 27.5517
L35.8595 27.5517
" />
</g><text x="35.2500" y="29.1440"
textLength="3.1090" font-size="1.0667" lengthAdjust="spacingAndGlyphs"
text-anchor="middle" opacity="0" stroke-opacity="0">L1_P</text>
<g class="stroked-text"><desc>L1_P</desc>
<path d="M34.4119 29.1063
L34.0310 29.1063
" />
<path d="M34.0310 29.1063
L34.0310 28.3063
" />
<path d="M35.0976 29.1063
L34.6405 29.1063
" />
<path d="M34.8690 29.1063
L34.8690 28.3063
" />
<path d="M34.8690 28.3063
L34.7929 28.4206
" />
<path d="M34.7929 28.4206
L34.7167 28.4967
" />
<path d="M34.7167 28.4967
L34.6405 28.5348
" />
<path d="M35.2500 29.1825
L35.8595 29.1825
" />
<path d="M36.0500 29.1063
L36.0500 28.3063
" />
<path d="M36.0500 28.3063
L36.3548 28.3063
" />
<path d="M36.3548 28.3063
L36.4310 28.3444
" />
<path d="M36.4310 28.3444
L36.4690 28.3825
" />
<path d="M36.4690 28.3825
L36.5071 28.4587
" />
<path d="M36.5071 28.4587
L36.5071 28.5729
" />
<path d="M36.5071 28.5729
L36.4690 28.6491
" />
<path d="M36.4690 28.6491
L36.4310 28.6872
" />
<path d="M36.4310 28.6872
L36.3548 28.7253
" />
<path d="M36.3548 28.7253
L36.0500 28.7253
" />
</g><text x="27.2500" y="27.8560"
textLength="1.8519" font-size="1.0667" lengthAdjust="spacingAndGlyphs"
text-anchor="middle" opacity="0" stroke-opacity="0">B4</text>
<g class="stroked-text"><desc>B4</desc>
<path d="M26.9262 27.3993
L27.0405 27.4374
" />
<path d="M27.0405 27.4374
L27.0786 27.4755
" />
<path d="M27.0786 27.4755
L27.1167 27.5517
" />
<path d="M27.1167 27.5517
L27.1167 27.6659
" />
<path d="M27.1167 27.6659
L27.0786 27.7421
" />
<path d="M27.0786 27.7421
L27.0405 27.7802
" />
<path d="M27.0405 27.7802
L26.9643 27.8183
" />
<path d="M26.9643 27.8183
L26.6595 27.8183
" />
<path d="M26.6595 27.8183
L26.6595 27.0183
" />
<path d="M26.6595 27.0183
L26.9262 27.0183
" />
<path d="M26.9262 27.0183
L27.0024 27.0564
" />
<path d="M27.0024 27.0564
L27.0405 27.0945
" />
<path d="M27.0405 27.0945
L27.0786 27.1707
" />
<path d="M27.0786 27.1707
L27.0786 27.2469
" />
<path d="M27.0786 27.2469
L27.0405 27.3231
" />
<path d="M27.0405 27.3231
L27.0024 27.3612
" />
<path d="M27.0024 27.3612
L26.9262 27.3993
" />
<path d="M26.9262 27.3993
L26.6595 27.3993
" />
<path d="M27.8024 27.2850
L27.8024 27.8183
" />
<path d="M27.6119 26.9802
L27.4214 27.5517
" />
<path d="M27.4214 27.5517
L27.9167 27.5517
" />
</g><text x="27.2500" y="29.1440"
textLength="3.1471" font-size="1.0667" lengthAdjust="spacingAndGlyphs"
text-anchor="middle" opacity="0" stroke-opacity="0">L3_N</text>
<g class="stroked-text"><desc>L3_N</desc>
<path d="M26.3929 29.1063
L26.0119 29.1063
" />
<path d="M26.0119 29.1063
L26.0119 28.3063
" />
<path d="M26.5833 28.3063
L27.0786 28.3063
" />
<path d="M27.0786 28.3063
L26.8119 28.6110
" />
<path d="M26.8119 28.6110
L26.9262 28.6110
" />
<path d="M26.9262 28.6110
L27.0024 28.6491
" />
<path d="M27.0024 28.6491
L27.0405 28.6872
" />
<path d="M27.0405 28.6872
L27.0786 28.7634
" />
<path d="M27.0786 28.7634
L27.0786 28.9539
" />
<path d="M27.0786 28.9539
L27.0405 29.0301
" />
<path d="M27.0405 29.0301
L27.0024 29.0682
" />
<path d="M27.0024 29.0682
L26.9262 29.1063
" />
<path d="M26.9262 29.1063
L26.6976 29.1063
" />
<path d="M26.6976 29.1063
L26.6214 29.0682
" />
<path d="M26.6214 29.0682
L26.5833 29.0301
" />
<path d="M27.2310 29.1825
L27.8405 29.1825
" />
<path d="M28.0310 29.1063
L28.0310 28.3063
" />
<path d="M28.0310 28.3063
L28.4881 29.1063
" />
<path d="M28.4881 29.1063
L28.4881 28.3063
" />
</g><text x="19.2500" y="27.8560"
textLength="1.8519" font-size="1.0667" lengthAdjust="spacingAndGlyphs"
text-anchor="middle" opacity="0" stroke-opacity="0">C4</text>
<g class="stroked-text"><desc>C4</desc>
<path d="M19.1167 27.7421
L19.0786 27.7802
" />
<path d="M19.0786 27.7802
L18.9643 27.8183
" />
<path d="M18.9643 27.8183
L18.8881 27.8183
" />
<path d="M18.8881 27.8183
L18.7738 27.7802
" />
<path d="M18.7738 27.7802
L18.6976 27.7040
" />
<path d="M18.6976 27.7040
L18.6595 27.6278
" />
<path d="M18.6595 27.6278
L18.6214 27.4755
" />
<path d="M18.6214 27.4755
L18.6214 27.3612
" />
<path d="M18.6214 27.3612
L18.6595 27.2088
" />
<path d="M18.6595 27.2088
L18.6976 27.1326
" />
<path d="M18.6976 27.1326
L18.7738 27.0564
" />
<path d="M18.7738 27.0564
L18.8881 27.0183
" />
<path d="M18.8881 27.0183
L18.9643 27.0183
" />
<path d="M18.9643 27.0183
L19.0786 27.0564
" />
<path d="M19.0786 27.0564
L19.1167 27.0945
" />
<path d="M19.8024 27.2850
L19.8024 27.8183
" />
<path d="M19.6119 26.9802
L19.4214 27.5517
" />
<path d="M19.4214 27.5517
L19.9167 27.5517
" />
</g><text x="19.2500" y="29.1440"
textLength="3.1090" font-size="1.0667" lengthAdjust="spacingAndGlyphs"
text-anchor="middle" opacity="0" stroke-opacity="0">L6_P</text>
<g class="stroked-text"><desc>L6_P</desc>
<path d="M18.4119 29.1063
L18.0310 29.1063
" />
<path d="M18.0310 29.1063
L18.0310 28.3063
" />
<path d="M19.0214 28.3063
L18.8690 28.3063
" />
<path d="M18.8690 28.3063
L18.7929 28.3444
" />
<path d="M18.7929 28.3444
L18.7548 28.3825
" />
<path d="M18.7548 28.3825
L18.6786 28.4967
" />
<path d="M18.6786 28.4967
L18.6405 28.6491
" />
<path d="M18.6405 28.6491
L18.6405 28.9539
" />
<path d="M18.6405 28.9539
L18.6786 29.0301
" />
<path d="M18.6786 29.0301
L18.7167 29.0682
" />
<path d="M18.7167 29.0682
L18.7929 29.1063
" />
<path d="M18.7929 29.1063
L18.9452 29.1063
" />
<path d="M18.9452 29.1063
L19.0214 29.0682
" />
<path d="M19.0214 29.0682
L19.0595 29.0301
" />
<path d="M19.0595 29.0301
L19.0976 28.9539
" />
<path d="M19.0976 28.9539
L19.0976 28.7634
" />
<path d="M19.0976 28.7634
L19.0595 28.6872
" />
<path d="M19.0595 28.6872
L19.0214 28.6491
" />
<path d="M19.0214 28.6491
L18.9452 28.6110
" />
<path d="M18.9452 28.6110
L18.7929 28.6110
" />
<path d="M18.7929 28.6110
L18.7167 28.6491
" />
<path d="M18.7167 28.6491
L18.6786 28.6872
" />
<path d="M18.6786 28.6872
L18.6405 28.7634
" />
<path d="M19.2500 29.1825
L19.8595 29.1825
" />
<path d="M20.0500 29.1063
L20.0500 28.3063
" />
<path d="M20.0500 28.3063
L20.3548 28.3063
" />
<path d="M20.3548 28.3063
L20.4310 28.3444
" />
<path d="M20.4310 28.3444
L20.4690 28.3825
" />
<path d="M20.4690 28.3825
L20.5071 28.4587
" />
<path d="M20.5071 28.4587
L20.5071 28.5729
" />
<path d="M20.5071 28.5729
L20.4690 28.6491
" />
<path d="M20.4690 28.6491
L20.4310 28.6872
" />
<path d="M20.4310 28.6872
L20.3548 28.7253
" />
<path d="M20.3548 28.7253
L20.0500 28.7253
" />
</g></g>
<g style="fill:none; 
stroke:#C83434; stroke-width:0.5000; stroke-opacity:1; 
stroke-linecap:round; stroke-linejoin:round;">
<path d="M17.2500 14.1000
L15.7500 15.6000
" />
<path d="M15.7500 15.6000
L0.2500 15.6000
" />
<path d="M15.7500 16.6000
L0.2500 16.6000
" />
<path d="M17.2500 18.1000
L15.7500 16.6000
" />
<path d="M17.2500 30.1000
L15.7500 31.6000
" />
<path d="M15.7500 31.6000
L0.2500 31.6000
" />
<path d="M15.7500 32.6000
L0.2500 32.6000
" />
<path d="M17.2500 34.1000
L15.7500 32.6000
" />
<path d="M9.2500 38.1000
L7.7500 39.6000
" />
<path d="M7.7500 39.6000
L0.2500 39.6000
" />
<path d="M7.7500 40.6000
L0.2500 40.6000
" />
<path d="M9.2500 42.1000
L7.7500 40.6000
" />
<path d="M29.2500 38.1000
L30.7500 39.6000
" />
<path d="M29.2500 42.1000
L30.7500 40.6000
" />
<path d="M30.7500 39.6000
L46.2500 39.6000
" />
<path d="M30.7500 40.6000
L46.2500 40.6000
" />
<path d="M29.2500 22.1000
L30.7500 23.6000
" />
<path d="M29.2500 26.1000
L30.7500 24.6000
" />
<path d="M30.7500 23.6000
L46.2500 23.6000
" />
<path d="M30.7500 24.6000
L46.2500 24.6000
" />
<path d="M29.2500 6.1000
L30.7500 7.6000
" />
<path d="M29.2500 10.1000
L30.7500 8.6000
" />
<path d="M30.7500 7.6000
L46.2500 7.6000
" />
<path d="M30.7500 8.6000
L46.2500 8.6000
" />
<path d="M37.2500 30.1000
L38.7500 31.6000
" />
<path d="M37.2500 34.1000
L38.7500 32.6000
" />
<path d="M38.7500 31.6000
L46.2500 31.6000
" />
<path d="M38.7500 32.6000
L46.2500 32.6000
" />
<path d="M37.2500 18.1000
L38.7500 16.6000
" />
<path d="M38.7500 16.6000
L46.2500 16.6000
" />
<path d="M38.7500 15.6000
L46.2500 15.6000
" />
<path d="M37.2500 14.1000
L38.7500 15.6000
" />
<path d="M9.2500 6.1000
L7.7500 7.6000
" />
<path d="M7.7500 7.6000
L0.2500 7.6000
" />
<path d="M7.7500 8.6000
L0.2500 8.6000
" />
<path d="M9.2500 10.1000
L7.7500 8.6000
" />
<path d="M7.7500 24.6000
L0.2500 24.6000
" />
<path d="M9.2500 26.1000
L7.7500 24.6000
" />
<path d="M7.7500 23.6000
L0.2500 23.6000
" />
<path d="M9.2500 22.1000
L7.7500 23.6000
" />
</g> 
</svg>
